solid OpenSCAD_Model
  facet normal 0 0 -1
    outer loop
      vertex -26 -23.02 0
      vertex -23 -23 0
      vertex -23 -23.02 0
    endloop
  endfacet
  facet normal -0 0 -1
    outer loop
      vertex -23 -23 0
      vertex -26 -23.02 0
      vertex -23 23 0
    endloop
  endfacet
  facet normal 0 0 -1
    outer loop
      vertex -26 23.02 0
      vertex -23 23 0
      vertex -26 -23.02 0
    endloop
  endfacet
  facet normal 0 0 -1
    outer loop
      vertex -23 23 0
      vertex -26 23.02 0
      vertex -23 23.02 0
    endloop
  endfacet
  facet normal 0 0 -1
    outer loop
      vertex -23 -23 0
      vertex 23 23 0
      vertex 23 -23 0
    endloop
  endfacet
  facet normal -0 0 -1
    outer loop
      vertex 23 23 0
      vertex -23 -23 0
      vertex -23 23 0
    endloop
  endfacet
  facet normal 0.998625 0 -0.0524276
    outer loop
      vertex -18.9 -17.1 40
      vertex -19.0575 19.0575 37
      vertex -18.9 18.9 40
    endloop
  endfacet
  facet normal 0.998625 0 -0.0524276
    outer loop
      vertex -19.0575 19.0575 37
      vertex -18.9 -17.1 40
      vertex -19.0575 -17.2425 37
    endloop
  endfacet
  facet normal 0 -0.998625 0.0524279
    outer loop
      vertex 6 -19.95 20
      vertex 17.1 -18.9 40
      vertex -20.7 -18.9 40
    endloop
  endfacet
  facet normal -1.80173e-07 -0.998625 0.0524278
    outer loop
      vertex 17.1 -18.9 40
      vertex 15.5 -19.698 24.8
      vertex 17.5 -19.635 26
    endloop
  endfacet
  facet normal -1.80173e-07 -0.998625 0.0524278
    outer loop
      vertex 17.1 -18.9 40
      vertex 13.5 -19.761 23.6
      vertex 15.5 -19.698 24.8
    endloop
  endfacet
  facet normal -1.2259e-07 -0.998625 0.0524278
    outer loop
      vertex 17.1 -18.9 40
      vertex 11.5 -19.824 22.4
      vertex 13.5 -19.761 23.6
    endloop
  endfacet
  facet normal -1.40862e-07 -0.998625 0.0524278
    outer loop
      vertex 17.1 -18.9 40
      vertex 9 -19.887 21.2
      vertex 11.5 -19.824 22.4
    endloop
  endfacet
  facet normal 6.9489e-07 -0.998625 0.0524275
    outer loop
      vertex 17.1 -18.9 40
      vertex 6 -19.95 20
      vertex 9 -19.887 21.2
    endloop
  endfacet
  facet normal -2.76047e-07 -0.998625 0.0524275
    outer loop
      vertex -20.7 -18.9 40
      vertex 3 -20.0287 18.5
      vertex 6 -19.95 20
    endloop
  endfacet
  facet normal 1.33264e-07 -0.998625 0.0524279
    outer loop
      vertex -20.7 -18.9 40
      vertex 0 -20.1075 17
      vertex 3 -20.0287 18.5
    endloop
  endfacet
  facet normal 1.33264e-07 -0.998625 0.0524279
    outer loop
      vertex -20.7 -18.9 40
      vertex -3 -20.1863 15.5
      vertex 0 -20.1075 17
    endloop
  endfacet
  facet normal -2.96818e-07 -0.998625 0.0524276
    outer loop
      vertex -20.7 -18.9 40
      vertex -6.5 -20.265 14
      vertex -3 -20.1863 15.5
    endloop
  endfacet
  facet normal -9.57149e-08 -0.998625 0.0524277
    outer loop
      vertex -20.7 -18.9 40
      vertex -10 -20.37 12
      vertex -6.5 -20.265 14
    endloop
  endfacet
  facet normal 3.14123e-07 -0.998625 0.0524279
    outer loop
      vertex -20.7 -18.9 40
      vertex -14 -20.475 10
      vertex -10 -20.37 12
    endloop
  endfacet
  facet normal -1.14226e-07 -0.998625 0.0524278
    outer loop
      vertex -20.7 -18.9 40
      vertex -18 -20.58 8
      vertex -14 -20.475 10
    endloop
  endfacet
  facet normal -9.8716e-08 -0.998625 0.0524278
    outer loop
      vertex -22.655 -20.685 6
      vertex -18 -20.58 8
      vertex -20.7 -18.9 40
    endloop
  endfacet
  facet normal 0 -0.998625 0.0524276
    outer loop
      vertex -18 -20.58 8
      vertex -22.655 -20.685 6
      vertex -18 -20.685 6
    endloop
  endfacet
  facet normal 0 -0.998625 0.0524278
    outer loop
      vertex 17.1 -18.9 40
      vertex 17.5 -19.635 26
      vertex 17.765 -19.635 26
    endloop
  endfacet
  facet normal 0 -0.998625 0.0524275
    outer loop
      vertex 17.5 -19.635 26
      vertex 15.5 -19.698 24.8
      vertex 17.5 -19.698 24.8
    endloop
  endfacet
  facet normal 0 -0.998625 0.0524275
    outer loop
      vertex 15.5 -19.698 24.8
      vertex 13.5 -19.761 23.6
      vertex 15.5 -19.761 23.6
    endloop
  endfacet
  facet normal 0 -0.998625 0.0524276
    outer loop
      vertex 13.5 -19.761 23.6
      vertex 11.5 -19.824 22.4
      vertex 13.5 -19.824 22.4
    endloop
  endfacet
  facet normal 0 -0.998625 0.0524275
    outer loop
      vertex 11.5 -19.824 22.4
      vertex 9 -19.887 21.2
      vertex 11.5 -19.887 21.2
    endloop
  endfacet
  facet normal 0 -0.998625 0.0524292
    outer loop
      vertex 9 -19.887 21.2
      vertex 6 -19.95 20
      vertex 9 -19.95 20
    endloop
  endfacet
  facet normal 0 -0.998625 0.0524269
    outer loop
      vertex 6 -19.95 20
      vertex 3 -20.0287 18.5
      vertex 6 -20.0287 18.5
    endloop
  endfacet
  facet normal 0 -0.998625 0.0524282
    outer loop
      vertex 3 -20.0287 18.5
      vertex 0 -20.1075 17
      vertex 3 -20.1075 17
    endloop
  endfacet
  facet normal 0 -0.998625 0.0524282
    outer loop
      vertex 0 -20.1075 17
      vertex -3 -20.1863 15.5
      vertex 0 -20.1863 15.5
    endloop
  endfacet
  facet normal 0 -0.998625 0.0524269
    outer loop
      vertex -3 -20.1863 15.5
      vertex -6.5 -20.265 14
      vertex -3 -20.265 14
    endloop
  endfacet
  facet normal 0 -0.998625 0.0524276
    outer loop
      vertex -6.5 -20.265 14
      vertex -10 -20.37 12
      vertex -6.5 -20.37 12
    endloop
  endfacet
  facet normal 0 -0.998625 0.0524285
    outer loop
      vertex -10 -20.37 12
      vertex -14 -20.475 10
      vertex -10 -20.475 10
    endloop
  endfacet
  facet normal 0 -0.998625 0.0524276
    outer loop
      vertex -14 -20.475 10
      vertex -18 -20.58 8
      vertex -14 -20.58 8
    endloop
  endfacet
  facet normal 0 -0.998625 -0.0524276
    outer loop
      vertex -19.0575 19.0575 37
      vertex 18.9 18.9 40
      vertex -18.9 18.9 40
    endloop
  endfacet
  facet normal 0 -0.998625 -0.0524276
    outer loop
      vertex 18.9 18.9 40
      vertex -19.0575 19.0575 37
      vertex 19.0575 19.0575 37
    endloop
  endfacet
  facet normal -0.998625 -0 -0.0524295
    outer loop
      vertex 19.5825 -14 27
      vertex 19.5825 -17 27
      vertex 19.53 -14 28
    endloop
  endfacet
  facet normal -0.998625 -0 -0.0524276
    outer loop
      vertex 19.53 -11 28
      vertex 19.53 -14 28
      vertex 19.4775 -11 29
    endloop
  endfacet
  facet normal -0.998625 -0 -0.0524276
    outer loop
      vertex 19.4775 -8 29
      vertex 19.4775 -11 29
      vertex 19.425 -8 30
    endloop
  endfacet
  facet normal -0.998625 -0 -0.0524276
    outer loop
      vertex 19.425 -5 30
      vertex 19.425 -8 30
      vertex 19.3725 -5 31
    endloop
  endfacet
  facet normal -0.998625 -0 -0.0524276
    outer loop
      vertex 19.3725 -2 31
      vertex 19.3725 -5 31
      vertex 19.32 -2 32
    endloop
  endfacet
  facet normal -0.998625 -0 -0.0524276
    outer loop
      vertex 19.32 1 32
      vertex 19.32 -2 32
      vertex 19.2675 1 33
    endloop
  endfacet
  facet normal -0.998625 -0 -0.0524276
    outer loop
      vertex 19.2675 4 33
      vertex 19.2675 1 33
      vertex 19.215 4 34
    endloop
  endfacet
  facet normal -0.998625 -0 -0.0524276
    outer loop
      vertex 19.215 7 34
      vertex 19.215 4 34
      vertex 19.1625 7 35
    endloop
  endfacet
  facet normal -0.998625 -0 -0.0524276
    outer loop
      vertex 19.1625 10 35
      vertex 19.1625 7 35
      vertex 19.11 10 36
    endloop
  endfacet
  facet normal -0.998625 -0 -0.0524295
    outer loop
      vertex 19.11 13 36
      vertex 19.11 10 36
      vertex 19.0575 13 37
    endloop
  endfacet
  facet normal -0.998625 0 -0.0524276
    outer loop
      vertex 19.0575 13 37
      vertex 18.9 18.9 40
      vertex 19.0575 19.0575 37
    endloop
  endfacet
  facet normal -0.998625 -1.84328e-06 -0.052424
    outer loop
      vertex 19.11 10 36
      vertex 18.9 18.9 40
      vertex 19.0575 13 37
    endloop
  endfacet
  facet normal -0.998625 4.46072e-08 -0.0524277
    outer loop
      vertex 18.9 -20.7 40
      vertex 19.11 10 36
      vertex 19.1625 7 35
    endloop
  endfacet
  facet normal -0.998625 4.46072e-08 -0.0524277
    outer loop
      vertex 18.9 -20.7 40
      vertex 19.1625 7 35
      vertex 19.215 4 34
    endloop
  endfacet
  facet normal -0.998625 4.46072e-08 -0.0524277
    outer loop
      vertex 18.9 -20.7 40
      vertex 19.215 4 34
      vertex 19.2675 1 33
    endloop
  endfacet
  facet normal -0.998625 4.46072e-08 -0.0524277
    outer loop
      vertex 18.9 -20.7 40
      vertex 19.2675 1 33
      vertex 19.32 -2 32
    endloop
  endfacet
  facet normal -0.998625 4.46072e-08 -0.0524277
    outer loop
      vertex 18.9 -20.7 40
      vertex 19.32 -2 32
      vertex 19.3725 -5 31
    endloop
  endfacet
  facet normal -0.998625 4.46072e-08 -0.0524277
    outer loop
      vertex 18.9 -20.7 40
      vertex 19.3725 -5 31
      vertex 19.425 -8 30
    endloop
  endfacet
  facet normal -0.998625 4.46072e-08 -0.0524277
    outer loop
      vertex 18.9 -20.7 40
      vertex 19.425 -8 30
      vertex 19.4775 -11 29
    endloop
  endfacet
  facet normal -0.998625 4.46072e-08 -0.0524277
    outer loop
      vertex 18.9 -20.7 40
      vertex 19.4775 -11 29
      vertex 19.53 -14 28
    endloop
  endfacet
  facet normal -0.998625 -4.90679e-07 -0.052428
    outer loop
      vertex 18.9 -20.7 40
      vertex 19.53 -14 28
      vertex 19.5825 -17 27
    endloop
  endfacet
  facet normal -0.998625 0 -0.052428
    outer loop
      vertex 19.11 10 36
      vertex 18.9 -20.7 40
      vertex 18.9 18.9 40
    endloop
  endfacet
  facet normal -0.998625 0 -0.0524276
    outer loop
      vertex 19.635 -21.505 26
      vertex 19.5825 -17 27
      vertex 19.635 -17 26
    endloop
  endfacet
  facet normal -0.998625 6.11813e-08 -0.0524278
    outer loop
      vertex 19.5825 -17 27
      vertex 19.635 -21.505 26
      vertex 18.9 -20.7 40
    endloop
  endfacet
  facet normal 0 0 1
    outer loop
      vertex 4.5375 11.7975 37
      vertex -9.9825 9.9825 37
      vertex 4.5375 9.9825 37
    endloop
  endfacet
  facet normal 0 0 1
    outer loop
      vertex -9.9825 9.9825 37
      vertex -11.7975 11.7975 37
      vertex -9.9825 -8.1675 37
    endloop
  endfacet
  facet normal -0 0 1
    outer loop
      vertex -11.7975 11.7975 37
      vertex -9.9825 9.9825 37
      vertex 4.5375 11.7975 37
    endloop
  endfacet
  facet normal 0 0 1
    outer loop
      vertex 8.1675 15.4275 37
      vertex 6.3525 13.6125 37
      vertex 8.1675 6.3525 37
    endloop
  endfacet
  facet normal 0 0 1
    outer loop
      vertex 8.1675 15.4275 37
      vertex -13.6125 13.6125 37
      vertex 6.3525 13.6125 37
    endloop
  endfacet
  facet normal 0 0 1
    outer loop
      vertex -13.6125 13.6125 37
      vertex -15.4275 15.4275 37
      vertex -13.6125 -11.7975 37
    endloop
  endfacet
  facet normal -0 0 1
    outer loop
      vertex -15.4275 15.4275 37
      vertex -13.6125 13.6125 37
      vertex 8.1675 15.4275 37
    endloop
  endfacet
  facet normal -0 0 1
    outer loop
      vertex 6.3525 8.1675 37
      vertex 8.1675 6.3525 37
      vertex 6.3525 13.6125 37
    endloop
  endfacet
  facet normal 0 0 1
    outer loop
      vertex 6.3525 8.1675 37
      vertex -6.3525 6.3525 37
      vertex 8.1675 6.3525 37
    endloop
  endfacet
  facet normal 0 0 1
    outer loop
      vertex -6.3525 6.3525 37
      vertex -8.1675 8.1675 37
      vertex -6.3525 -4.5375 37
    endloop
  endfacet
  facet normal -0 0 1
    outer loop
      vertex -8.1675 8.1675 37
      vertex -6.3525 6.3525 37
      vertex 6.3525 8.1675 37
    endloop
  endfacet
  facet normal 0 0 1
    outer loop
      vertex 4.5375 4.5375 37
      vertex 2.7225 2.7225 37
      vertex 4.5375 -6.3525 37
    endloop
  endfacet
  facet normal 0 0 1
    outer loop
      vertex 4.5375 4.5375 37
      vertex -2.7225 2.7225 37
      vertex 2.7225 2.7225 37
    endloop
  endfacet
  facet normal 0 0 1
    outer loop
      vertex -2.7225 2.7225 37
      vertex -4.5375 4.5375 37
      vertex -2.7225 -0.9075 37
    endloop
  endfacet
  facet normal -0 0 1
    outer loop
      vertex -4.5375 4.5375 37
      vertex -2.7225 2.7225 37
      vertex 4.5375 4.5375 37
    endloop
  endfacet
  facet normal -0 0 1
    outer loop
      vertex 2.7225 -4.5375 37
      vertex 4.5375 -6.3525 37
      vertex 2.7225 2.7225 37
    endloop
  endfacet
  facet normal -0 0 1
    outer loop
      vertex -6.3525 -4.5375 37
      vertex 4.5375 -6.3525 37
      vertex 2.7225 -4.5375 37
    endloop
  endfacet
  facet normal 0 0 1
    outer loop
      vertex -6.3525 -4.5375 37
      vertex -8.1675 -6.3525 37
      vertex 4.5375 -6.3525 37
    endloop
  endfacet
  facet normal 0 0 1
    outer loop
      vertex -8.1675 -6.3525 37
      vertex -6.3525 -4.5375 37
      vertex -8.1675 8.1675 37
    endloop
  endfacet
  facet normal 0 0 1
    outer loop
      vertex -0.9075 -0.9075 37
      vertex 0.9075 0.9075 37
      vertex -0.9075 0.9075 37
    endloop
  endfacet
  facet normal 0 0 1
    outer loop
      vertex 0.9075 0.9075 37
      vertex -0.9075 -0.9075 37
      vertex 0.9075 -2.7225 37
    endloop
  endfacet
  facet normal -0 0 1
    outer loop
      vertex -2.7225 -0.9075 37
      vertex 0.9075 -2.7225 37
      vertex -0.9075 -0.9075 37
    endloop
  endfacet
  facet normal 0 0 1
    outer loop
      vertex -2.7225 -0.9075 37
      vertex -4.5375 -2.7225 37
      vertex 0.9075 -2.7225 37
    endloop
  endfacet
  facet normal 0 0 1
    outer loop
      vertex -4.5375 -2.7225 37
      vertex -2.7225 -0.9075 37
      vertex -4.5375 4.5375 37
    endloop
  endfacet
  facet normal 0 0 1
    outer loop
      vertex 9.9825 4.5375 37
      vertex 8.1675 2.7225 37
      vertex 9.9825 2.7225 37
    endloop
  endfacet
  facet normal -0 0 1
    outer loop
      vertex 6.3525 4.5375 37
      vertex 8.1675 2.7225 37
      vertex 9.9825 4.5375 37
    endloop
  endfacet
  facet normal 0 0 1
    outer loop
      vertex 6.3525 -8.1675 37
      vertex 8.1675 2.7225 37
      vertex 6.3525 4.5375 37
    endloop
  endfacet
  facet normal 0 0 1
    outer loop
      vertex 8.1675 2.7225 37
      vertex 6.3525 -8.1675 37
      vertex 8.1675 -9.9825 37
    endloop
  endfacet
  facet normal -0 0 1
    outer loop
      vertex -9.9825 -8.1675 37
      vertex 8.1675 -9.9825 37
      vertex 6.3525 -8.1675 37
    endloop
  endfacet
  facet normal 0 0 1
    outer loop
      vertex -9.9825 -8.1675 37
      vertex -11.7975 -9.9825 37
      vertex 8.1675 -9.9825 37
    endloop
  endfacet
  facet normal 0 0 1
    outer loop
      vertex -11.7975 -9.9825 37
      vertex -9.9825 -8.1675 37
      vertex -11.7975 11.7975 37
    endloop
  endfacet
  facet normal 0 0 1
    outer loop
      vertex 19.0575 19.0575 37
      vertex 17.2425 17.2425 37
      vertex 19.0575 13 37
    endloop
  endfacet
  facet normal 0 0 1
    outer loop
      vertex 19.0575 19.0575 37
      vertex 11.7975 17.2425 37
      vertex 17.2425 17.2425 37
    endloop
  endfacet
  facet normal 0 0 1
    outer loop
      vertex 9.9825 4.5375 37
      vertex 11.7975 17.2425 37
      vertex 9.9825 17.2425 37
    endloop
  endfacet
  facet normal 0 0 1
    outer loop
      vertex 19.0575 19.0575 37
      vertex 9.9825 17.2425 37
      vertex 11.7975 17.2425 37
    endloop
  endfacet
  facet normal -0 0 1
    outer loop
      vertex -19.0575 19.0575 37
      vertex 9.9825 17.2425 37
      vertex 19.0575 19.0575 37
    endloop
  endfacet
  facet normal 0 0 1
    outer loop
      vertex -17.2425 17.2425 37
      vertex -19.0575 19.0575 37
      vertex -17.2425 -15.4275 37
    endloop
  endfacet
  facet normal 0 0 1
    outer loop
      vertex 9.9825 17.2425 37
      vertex -19.0575 19.0575 37
      vertex -17.2425 17.2425 37
    endloop
  endfacet
  facet normal 0 0 1
    outer loop
      vertex 19.0575 13 37
      vertex 17.2425 17.2425 37
      vertex 17.2425 13 37
    endloop
  endfacet
  facet normal 0 0 1
    outer loop
      vertex 9.9825 2.7225 37
      vertex 11.7975 17.2425 37
      vertex 9.9825 4.5375 37
    endloop
  endfacet
  facet normal 0 0 1
    outer loop
      vertex 11.7975 17.2425 37
      vertex 9.9825 2.7225 37
      vertex 11.7975 -13.6125 37
    endloop
  endfacet
  facet normal -0 0 1
    outer loop
      vertex 9.9825 -11.7975 37
      vertex 11.7975 -13.6125 37
      vertex 9.9825 2.7225 37
    endloop
  endfacet
  facet normal -0 0 1
    outer loop
      vertex -13.6125 -11.7975 37
      vertex 11.7975 -13.6125 37
      vertex 9.9825 -11.7975 37
    endloop
  endfacet
  facet normal 0 0 1
    outer loop
      vertex -13.6125 -11.7975 37
      vertex -15.4275 -13.6125 37
      vertex 11.7975 -13.6125 37
    endloop
  endfacet
  facet normal 0 0 1
    outer loop
      vertex -15.4275 -13.6125 37
      vertex -13.6125 -11.7975 37
      vertex -15.4275 15.4275 37
    endloop
  endfacet
  facet normal 0 0 1
    outer loop
      vertex 13.6125 -15.4275 37
      vertex 15.4275 15.4275 37
      vertex 13.6125 15.4275 37
    endloop
  endfacet
  facet normal 0 0 1
    outer loop
      vertex 15.4275 15.4275 37
      vertex 13.6125 -15.4275 37
      vertex 15.4275 -17.2425 37
    endloop
  endfacet
  facet normal -0 0 1
    outer loop
      vertex -17.2425 -15.4275 37
      vertex 15.4275 -17.2425 37
      vertex 13.6125 -15.4275 37
    endloop
  endfacet
  facet normal 0 0 1
    outer loop
      vertex -17.2425 -15.4275 37
      vertex -19.0575 -17.2425 37
      vertex 15.4275 -17.2425 37
    endloop
  endfacet
  facet normal 0 0 1
    outer loop
      vertex -19.0575 -17.2425 37
      vertex -17.2425 -15.4275 37
      vertex -19.0575 19.0575 37
    endloop
  endfacet
  facet normal 0 0 1
    outer loop
      vertex 17.765 -19.635 26
      vertex 19.635 -17 26
      vertex 17.765 -17 26
    endloop
  endfacet
  facet normal 0 0 1
    outer loop
      vertex 19.635 -17 26
      vertex 17.765 -19.635 26
      vertex 19.635 -21.505 26
    endloop
  endfacet
  facet normal 0 0 1
    outer loop
      vertex 17.5 -21.505 26
      vertex 17.765 -19.635 26
      vertex 17.5 -19.635 26
    endloop
  endfacet
  facet normal 0 0 1
    outer loop
      vertex 17.765 -19.635 26
      vertex 17.5 -21.505 26
      vertex 19.635 -21.505 26
    endloop
  endfacet
  facet normal 0 -1 0
    outer loop
      vertex 17.765 -17 26
      vertex 19.5825 -17 27
      vertex 17.7175 -17 27
    endloop
  endfacet
  facet normal 0 -1 -0
    outer loop
      vertex 19.5825 -17 27
      vertex 17.765 -17 26
      vertex 19.635 -17 26
    endloop
  endfacet
  facet normal -0 0 1
    outer loop
      vertex 17.7175 -14 27
      vertex 19.5825 -17 27
      vertex 19.5825 -14 27
    endloop
  endfacet
  facet normal 0 0 1
    outer loop
      vertex 19.5825 -17 27
      vertex 17.7175 -14 27
      vertex 17.7175 -17 27
    endloop
  endfacet
  facet normal 0 -1 0
    outer loop
      vertex 17.7175 -14 27
      vertex 19.53 -14 28
      vertex 17.67 -14 28
    endloop
  endfacet
  facet normal 0 -1 -0
    outer loop
      vertex 19.53 -14 28
      vertex 17.7175 -14 27
      vertex 19.5825 -14 27
    endloop
  endfacet
  facet normal 0 -1 0
    outer loop
      vertex 17.67 -11 28
      vertex 19.4775 -11 29
      vertex 17.6225 -11 29
    endloop
  endfacet
  facet normal 0 -1 -0
    outer loop
      vertex 19.4775 -11 29
      vertex 17.67 -11 28
      vertex 19.53 -11 28
    endloop
  endfacet
  facet normal -0 0 1
    outer loop
      vertex 17.67 -11 28
      vertex 19.53 -14 28
      vertex 19.53 -11 28
    endloop
  endfacet
  facet normal 0 0 1
    outer loop
      vertex 19.53 -14 28
      vertex 17.67 -11 28
      vertex 17.67 -14 28
    endloop
  endfacet
  facet normal -0 0 1
    outer loop
      vertex 17.6225 -8 29
      vertex 19.4775 -11 29
      vertex 19.4775 -8 29
    endloop
  endfacet
  facet normal 0 0 1
    outer loop
      vertex 19.4775 -11 29
      vertex 17.6225 -8 29
      vertex 17.6225 -11 29
    endloop
  endfacet
  facet normal 0 -1 0
    outer loop
      vertex 17.6225 -8 29
      vertex 19.425 -8 30
      vertex 17.575 -8 30
    endloop
  endfacet
  facet normal 0 -1 -0
    outer loop
      vertex 19.425 -8 30
      vertex 17.6225 -8 29
      vertex 19.4775 -8 29
    endloop
  endfacet
  facet normal 0 -1 0
    outer loop
      vertex 17.575 -5 30
      vertex 19.3725 -5 31
      vertex 17.5275 -5 31
    endloop
  endfacet
  facet normal 0 -1 -0
    outer loop
      vertex 19.3725 -5 31
      vertex 17.575 -5 30
      vertex 19.425 -5 30
    endloop
  endfacet
  facet normal -0 0 1
    outer loop
      vertex 17.575 -5 30
      vertex 19.425 -8 30
      vertex 19.425 -5 30
    endloop
  endfacet
  facet normal 0 0 1
    outer loop
      vertex 19.425 -8 30
      vertex 17.575 -5 30
      vertex 17.575 -8 30
    endloop
  endfacet
  facet normal 0 -1 0
    outer loop
      vertex 17.5275 -2 31
      vertex 19.32 -2 32
      vertex 17.48 -2 32
    endloop
  endfacet
  facet normal 0 -1 -0
    outer loop
      vertex 19.32 -2 32
      vertex 17.5275 -2 31
      vertex 19.3725 -2 31
    endloop
  endfacet
  facet normal -0 0 1
    outer loop
      vertex 17.5275 -2 31
      vertex 19.3725 -5 31
      vertex 19.3725 -2 31
    endloop
  endfacet
  facet normal 0 0 1
    outer loop
      vertex 19.3725 -5 31
      vertex 17.5275 -2 31
      vertex 17.5275 -5 31
    endloop
  endfacet
  facet normal 0 -1 0
    outer loop
      vertex 17.48 1 32
      vertex 19.2675 1 33
      vertex 17.4325 1 33
    endloop
  endfacet
  facet normal 0 -1 -0
    outer loop
      vertex 19.2675 1 33
      vertex 17.48 1 32
      vertex 19.32 1 32
    endloop
  endfacet
  facet normal -0 0 1
    outer loop
      vertex 17.48 1 32
      vertex 19.32 -2 32
      vertex 19.32 1 32
    endloop
  endfacet
  facet normal 0 0 1
    outer loop
      vertex 19.32 -2 32
      vertex 17.48 1 32
      vertex 17.48 -2 32
    endloop
  endfacet
  facet normal 0 -1 0
    outer loop
      vertex 17.4325 4 33
      vertex 19.215 4 34
      vertex 17.385 4 34
    endloop
  endfacet
  facet normal 0 -1 -0
    outer loop
      vertex 19.215 4 34
      vertex 17.4325 4 33
      vertex 19.2675 4 33
    endloop
  endfacet
  facet normal -0 0 1
    outer loop
      vertex 17.4325 4 33
      vertex 19.2675 1 33
      vertex 19.2675 4 33
    endloop
  endfacet
  facet normal 0 0 1
    outer loop
      vertex 19.2675 1 33
      vertex 17.4325 4 33
      vertex 17.4325 1 33
    endloop
  endfacet
  facet normal -0 0 1
    outer loop
      vertex 17.385 7 34
      vertex 19.215 4 34
      vertex 19.215 7 34
    endloop
  endfacet
  facet normal 0 0 1
    outer loop
      vertex 19.215 4 34
      vertex 17.385 7 34
      vertex 17.385 4 34
    endloop
  endfacet
  facet normal 0 -1 0
    outer loop
      vertex 17.385 7 34
      vertex 19.1625 7 35
      vertex 17.3375 7 35
    endloop
  endfacet
  facet normal 0 -1 -0
    outer loop
      vertex 19.1625 7 35
      vertex 17.385 7 34
      vertex 19.215 7 34
    endloop
  endfacet
  facet normal 0 -1 0
    outer loop
      vertex 17.3375 10 35
      vertex 19.11 10 36
      vertex 17.29 10 36
    endloop
  endfacet
  facet normal 0 -1 -0
    outer loop
      vertex 19.11 10 36
      vertex 17.3375 10 35
      vertex 19.1625 10 35
    endloop
  endfacet
  facet normal -0 0 1
    outer loop
      vertex 17.3375 10 35
      vertex 19.1625 7 35
      vertex 19.1625 10 35
    endloop
  endfacet
  facet normal 0 0 1
    outer loop
      vertex 19.1625 7 35
      vertex 17.3375 10 35
      vertex 17.3375 7 35
    endloop
  endfacet
  facet normal 0 -1 0
    outer loop
      vertex 17.29 13 36
      vertex 19.0575 13 37
      vertex 17.2425 13 37
    endloop
  endfacet
  facet normal 0 -1 -0
    outer loop
      vertex 19.0575 13 37
      vertex 17.29 13 36
      vertex 19.11 13 36
    endloop
  endfacet
  facet normal -0 0 1
    outer loop
      vertex 17.29 13 36
      vertex 19.11 10 36
      vertex 19.11 13 36
    endloop
  endfacet
  facet normal 0 0 1
    outer loop
      vertex 19.11 10 36
      vertex 17.29 13 36
      vertex 17.29 10 36
    endloop
  endfacet
  facet normal -0.998351 0 0.057405
    outer loop
      vertex -22.655 -22.63 6
      vertex -22.8467 -22.8467 2.66667
      vertex -22.655 -22.655 6
    endloop
  endfacet
  facet normal -0.998351 2.93973e-05 0.0574069
    outer loop
      vertex -22.655 22.63 6
      vertex -20.7 20.7 40
      vertex -22.8467 22.8467 2.66667
    endloop
  endfacet
  facet normal -0.998351 0 0.0574052
    outer loop
      vertex -22.655 22.63 6
      vertex -20.7 -18.9 40
      vertex -20.7 20.7 40
    endloop
  endfacet
  facet normal -0.998351 0 0.0574052
    outer loop
      vertex -20.7 -18.9 40
      vertex -22.655 22.63 6
      vertex -22.655 -20.685 6
    endloop
  endfacet
  facet normal 0 -0.998351 0.057405
    outer loop
      vertex -22.8267 -22.8467 2.66667
      vertex -22.655 -22.655 6
      vertex -22.8467 -22.8467 2.66667
    endloop
  endfacet
  facet normal 0 -0.998351 0.057406
    outer loop
      vertex -18 -22.54 8
      vertex -18 -22.655 6
      vertex -14 -22.54 8
    endloop
  endfacet
  facet normal 0 -0.998351 0.0574051
    outer loop
      vertex -14 -22.425 10
      vertex -14 -22.54 8
      vertex -10 -22.425 10
    endloop
  endfacet
  facet normal 0 -0.998351 0.0574051
    outer loop
      vertex -10 -22.31 12
      vertex -10 -22.425 10
      vertex -6.5 -22.31 12
    endloop
  endfacet
  facet normal 0 -0.998351 0.0574051
    outer loop
      vertex -6.5 -22.195 14
      vertex -6.5 -22.31 12
      vertex -3 -22.195 14
    endloop
  endfacet
  facet normal 0 -0.998351 0.0574054
    outer loop
      vertex -3 -22.1087 15.5
      vertex -3 -22.195 14
      vertex 0 -22.1087 15.5
    endloop
  endfacet
  facet normal 0 -0.998351 0.0574054
    outer loop
      vertex 0 -22.0225 17
      vertex 0 -22.1087 15.5
      vertex 3 -22.0225 17
    endloop
  endfacet
  facet normal 0 -0.998351 0.0574054
    outer loop
      vertex 3 -21.9362 18.5
      vertex 3 -22.0225 17
      vertex 6 -21.9362 18.5
    endloop
  endfacet
  facet normal 0 -0.998351 0.0574054
    outer loop
      vertex 6 -21.85 20
      vertex 6 -21.9362 18.5
      vertex 9 -21.85 20
    endloop
  endfacet
  facet normal 0 -0.998351 0.0574039
    outer loop
      vertex 9 -21.781 21.2
      vertex 9 -21.85 20
      vertex 11.5 -21.781 21.2
    endloop
  endfacet
  facet normal 0 -0.998351 0.0574053
    outer loop
      vertex 11.5 -21.712 22.4
      vertex 11.5 -21.781 21.2
      vertex 13.5 -21.712 22.4
    endloop
  endfacet
  facet normal 0 -0.998351 0.0574054
    outer loop
      vertex 13.5 -21.643 23.6
      vertex 13.5 -21.712 22.4
      vertex 15.5 -21.643 23.6
    endloop
  endfacet
  facet normal 0 -0.998351 0.0574053
    outer loop
      vertex 15.5 -21.574 24.8
      vertex 15.5 -21.643 23.6
      vertex 17.5 -21.574 24.8
    endloop
  endfacet
  facet normal 0 -0.998351 0.0574053
    outer loop
      vertex 17.5 -21.505 26
      vertex 17.5 -21.574 24.8
      vertex 19.635 -21.505 26
    endloop
  endfacet
  facet normal 0 -0.998351 0.0574052
    outer loop
      vertex 19.635 -21.505 26
      vertex 20.7 -20.7 40
      vertex 18.9 -20.7 40
    endloop
  endfacet
  facet normal 7.46095e-08 -0.998351 0.0574052
    outer loop
      vertex 23 -23 0
      vertex 17.5 -21.574 24.8
      vertex 15.5 -21.643 23.6
    endloop
  endfacet
  facet normal 1.20588e-07 -0.998351 0.0574052
    outer loop
      vertex 23 -23 0
      vertex 15.5 -21.643 23.6
      vertex 13.5 -21.712 22.4
    endloop
  endfacet
  facet normal 7.69474e-08 -0.998351 0.0574052
    outer loop
      vertex 23 -23 0
      vertex 13.5 -21.712 22.4
      vertex 11.5 -21.781 21.2
    endloop
  endfacet
  facet normal 4.70174e-08 -0.998351 0.0574053
    outer loop
      vertex 23 -23 0
      vertex 9 -21.85 20
      vertex 6 -21.9362 18.5
    endloop
  endfacet
  facet normal 4.70174e-08 -0.998351 0.0574053
    outer loop
      vertex 23 -23 0
      vertex 6 -21.9362 18.5
      vertex 3 -22.0225 17
    endloop
  endfacet
  facet normal 4.70174e-08 -0.998351 0.0574053
    outer loop
      vertex 23 -23 0
      vertex 3 -22.0225 17
      vertex 0 -22.1087 15.5
    endloop
  endfacet
  facet normal 4.70174e-08 -0.998351 0.0574053
    outer loop
      vertex 23 -23 0
      vertex 0 -22.1087 15.5
      vertex -3 -22.195 14
    endloop
  endfacet
  facet normal -3.7707e-08 -0.998351 0.0574051
    outer loop
      vertex 23 -23 0
      vertex -3 -22.195 14
      vertex -6.5 -22.31 12
    endloop
  endfacet
  facet normal -3.7707e-08 -0.998351 0.0574051
    outer loop
      vertex 23 -23 0
      vertex -6.5 -22.31 12
      vertex -10 -22.425 10
    endloop
  endfacet
  facet normal 8.16087e-07 -0.998351 0.0574044
    outer loop
      vertex -23 -23 0
      vertex -14 -22.54 8
      vertex -18 -22.655 6
    endloop
  endfacet
  facet normal 0 -0.998351 0.057405
    outer loop
      vertex -22.655 -22.655 6
      vertex -22.8267 -22.8467 2.66667
      vertex -18 -22.655 6
    endloop
  endfacet
  facet normal -1.2053e-07 -0.998351 0.0574052
    outer loop
      vertex -23 -23 0
      vertex -18 -22.655 6
      vertex -22.8267 -22.8467 2.66667
    endloop
  endfacet
  facet normal 0 -0.998351 0.0574053
    outer loop
      vertex 23 -23 0
      vertex -14 -22.54 8
      vertex -23 -23 0
    endloop
  endfacet
  facet normal -3.59284e-08 -0.998351 0.0574051
    outer loop
      vertex -14 -22.54 8
      vertex 23 -23 0
      vertex -10 -22.425 10
    endloop
  endfacet
  facet normal -5.04842e-07 -0.998351 0.0574049
    outer loop
      vertex 9 -21.85 20
      vertex 23 -23 0
      vertex 11.5 -21.781 21.2
    endloop
  endfacet
  facet normal -5.09146e-08 -0.998351 0.0574052
    outer loop
      vertex 19.635 -21.505 26
      vertex 23 -23 0
      vertex 20.7 -20.7 40
    endloop
  endfacet
  facet normal 7.04147e-08 -0.998351 0.0574052
    outer loop
      vertex 17.5 -21.574 24.8
      vertex 23 -23 0
      vertex 19.635 -21.505 26
    endloop
  endfacet
  facet normal 0 0.998351 0.0574052
    outer loop
      vertex 20.7 20.7 40
      vertex -22.8267 22.8467 2.66667
      vertex -20.7 20.7 40
    endloop
  endfacet
  facet normal 2.93146e-09 0.998351 0.0574052
    outer loop
      vertex 23 23 0
      vertex -22.8267 22.8467 2.66667
      vertex 20.7 20.7 40
    endloop
  endfacet
  facet normal 0 0.998351 0.0574052
    outer loop
      vertex -22.8267 22.8467 2.66667
      vertex 23 23 0
      vertex -23 23 0
    endloop
  endfacet
  facet normal 0 0.998351 0.0574052
    outer loop
      vertex -20.7 20.7 40
      vertex -22.8267 22.8467 2.66667
      vertex -22.8467 22.8467 2.66667
    endloop
  endfacet
  facet normal 0.998351 -0 0.0574052
    outer loop
      vertex 20.7 -20.7 40
      vertex 23 23 0
      vertex 20.7 20.7 40
    endloop
  endfacet
  facet normal 0.998351 0 0.0574052
    outer loop
      vertex 23 23 0
      vertex 20.7 -20.7 40
      vertex 23 -23 0
    endloop
  endfacet
  facet normal -1 0 0
    outer loop
      vertex -18 -20.685 6
      vertex -18 -22.54 8
      vertex -18 -20.58 8
    endloop
  endfacet
  facet normal -1 0 -0
    outer loop
      vertex -18 -22.54 8
      vertex -18 -20.685 6
      vertex -18 -22.655 6
    endloop
  endfacet
  facet normal -0 0 1
    outer loop
      vertex -22.655 -20.685 6
      vertex -18 -22.655 6
      vertex -18 -20.685 6
    endloop
  endfacet
  facet normal -0 0 1
    outer loop
      vertex -22.655 -22.63 6
      vertex -18 -22.655 6
      vertex -22.655 -20.685 6
    endloop
  endfacet
  facet normal 0 0 1
    outer loop
      vertex -18 -22.655 6
      vertex -22.655 -22.63 6
      vertex -22.655 -22.655 6
    endloop
  endfacet
  facet normal -0 0 1
    outer loop
      vertex -25.61 22.63 6
      vertex -22.655 -20.685 6
      vertex -22.655 22.63 6
    endloop
  endfacet
  facet normal 0 0 1
    outer loop
      vertex -25.61 -22.63 6
      vertex -22.655 -20.685 6
      vertex -25.61 22.63 6
    endloop
  endfacet
  facet normal 0 0 1
    outer loop
      vertex -22.655 -20.685 6
      vertex -25.61 -22.63 6
      vertex -22.655 -22.63 6
    endloop
  endfacet
  facet normal -1 0 0
    outer loop
      vertex -14 -20.58 8
      vertex -14 -22.425 10
      vertex -14 -20.475 10
    endloop
  endfacet
  facet normal -1 0 -0
    outer loop
      vertex -14 -22.425 10
      vertex -14 -20.58 8
      vertex -14 -22.54 8
    endloop
  endfacet
  facet normal -0 0 1
    outer loop
      vertex -18 -20.58 8
      vertex -14 -22.54 8
      vertex -14 -20.58 8
    endloop
  endfacet
  facet normal 0 0 1
    outer loop
      vertex -14 -22.54 8
      vertex -18 -20.58 8
      vertex -18 -22.54 8
    endloop
  endfacet
  facet normal -1 0 0
    outer loop
      vertex -10 -20.475 10
      vertex -10 -22.31 12
      vertex -10 -20.37 12
    endloop
  endfacet
  facet normal -1 0 -0
    outer loop
      vertex -10 -22.31 12
      vertex -10 -20.475 10
      vertex -10 -22.425 10
    endloop
  endfacet
  facet normal -0 0 1
    outer loop
      vertex -14 -20.475 10
      vertex -10 -22.425 10
      vertex -10 -20.475 10
    endloop
  endfacet
  facet normal 0 0 1
    outer loop
      vertex -10 -22.425 10
      vertex -14 -20.475 10
      vertex -14 -22.425 10
    endloop
  endfacet
  facet normal -1 0 0
    outer loop
      vertex -6.5 -20.37 12
      vertex -6.5 -22.195 14
      vertex -6.5 -20.265 14
    endloop
  endfacet
  facet normal -1 0 -0
    outer loop
      vertex -6.5 -22.195 14
      vertex -6.5 -20.37 12
      vertex -6.5 -22.31 12
    endloop
  endfacet
  facet normal -0 0 1
    outer loop
      vertex -10 -20.37 12
      vertex -6.5 -22.31 12
      vertex -6.5 -20.37 12
    endloop
  endfacet
  facet normal 0 0 1
    outer loop
      vertex -6.5 -22.31 12
      vertex -10 -20.37 12
      vertex -10 -22.31 12
    endloop
  endfacet
  facet normal -1 0 0
    outer loop
      vertex -3 -20.265 14
      vertex -3 -22.1087 15.5
      vertex -3 -20.1863 15.5
    endloop
  endfacet
  facet normal -1 0 -0
    outer loop
      vertex -3 -22.1087 15.5
      vertex -3 -20.265 14
      vertex -3 -22.195 14
    endloop
  endfacet
  facet normal -0 0 1
    outer loop
      vertex -6.5 -20.265 14
      vertex -3 -22.195 14
      vertex -3 -20.265 14
    endloop
  endfacet
  facet normal 0 0 1
    outer loop
      vertex -3 -22.195 14
      vertex -6.5 -20.265 14
      vertex -6.5 -22.195 14
    endloop
  endfacet
  facet normal -1 0 0
    outer loop
      vertex 0 -20.1863 15.5
      vertex 0 -22.0225 17
      vertex 0 -20.1075 17
    endloop
  endfacet
  facet normal -1 0 -0
    outer loop
      vertex 0 -22.0225 17
      vertex 0 -20.1863 15.5
      vertex 0 -22.1087 15.5
    endloop
  endfacet
  facet normal -0 0 1
    outer loop
      vertex -3 -20.1863 15.5
      vertex 0 -22.1087 15.5
      vertex 0 -20.1863 15.5
    endloop
  endfacet
  facet normal 0 0 1
    outer loop
      vertex 0 -22.1087 15.5
      vertex -3 -20.1863 15.5
      vertex -3 -22.1087 15.5
    endloop
  endfacet
  facet normal -1 0 0
    outer loop
      vertex 3 -20.1075 17
      vertex 3 -21.9362 18.5
      vertex 3 -20.0287 18.5
    endloop
  endfacet
  facet normal -1 0 -0
    outer loop
      vertex 3 -21.9362 18.5
      vertex 3 -20.1075 17
      vertex 3 -22.0225 17
    endloop
  endfacet
  facet normal -0 0 1
    outer loop
      vertex 0 -20.1075 17
      vertex 3 -22.0225 17
      vertex 3 -20.1075 17
    endloop
  endfacet
  facet normal 0 0 1
    outer loop
      vertex 3 -22.0225 17
      vertex 0 -20.1075 17
      vertex 0 -22.0225 17
    endloop
  endfacet
  facet normal -1 0 0
    outer loop
      vertex 6 -20.0287 18.5
      vertex 6 -21.85 20
      vertex 6 -19.95 20
    endloop
  endfacet
  facet normal -1 0 -0
    outer loop
      vertex 6 -21.85 20
      vertex 6 -20.0287 18.5
      vertex 6 -21.9362 18.5
    endloop
  endfacet
  facet normal -0 0 1
    outer loop
      vertex 3 -20.0287 18.5
      vertex 6 -21.9362 18.5
      vertex 6 -20.0287 18.5
    endloop
  endfacet
  facet normal 0 0 1
    outer loop
      vertex 6 -21.9362 18.5
      vertex 3 -20.0287 18.5
      vertex 3 -21.9362 18.5
    endloop
  endfacet
  facet normal -1 0 0
    outer loop
      vertex 9 -19.95 20
      vertex 9 -21.781 21.2
      vertex 9 -19.887 21.2
    endloop
  endfacet
  facet normal -1 0 -0
    outer loop
      vertex 9 -21.781 21.2
      vertex 9 -19.95 20
      vertex 9 -21.85 20
    endloop
  endfacet
  facet normal -0 0 1
    outer loop
      vertex 6 -19.95 20
      vertex 9 -21.85 20
      vertex 9 -19.95 20
    endloop
  endfacet
  facet normal 0 0 1
    outer loop
      vertex 9 -21.85 20
      vertex 6 -19.95 20
      vertex 6 -21.85 20
    endloop
  endfacet
  facet normal -1 0 0
    outer loop
      vertex 11.5 -19.887 21.2
      vertex 11.5 -21.712 22.4
      vertex 11.5 -19.824 22.4
    endloop
  endfacet
  facet normal -1 0 -0
    outer loop
      vertex 11.5 -21.712 22.4
      vertex 11.5 -19.887 21.2
      vertex 11.5 -21.781 21.2
    endloop
  endfacet
  facet normal -0 0 1
    outer loop
      vertex 9 -19.887 21.2
      vertex 11.5 -21.781 21.2
      vertex 11.5 -19.887 21.2
    endloop
  endfacet
  facet normal 0 0 1
    outer loop
      vertex 11.5 -21.781 21.2
      vertex 9 -19.887 21.2
      vertex 9 -21.781 21.2
    endloop
  endfacet
  facet normal -1 0 0
    outer loop
      vertex 13.5 -19.824 22.4
      vertex 13.5 -21.643 23.6
      vertex 13.5 -19.761 23.6
    endloop
  endfacet
  facet normal -1 0 -0
    outer loop
      vertex 13.5 -21.643 23.6
      vertex 13.5 -19.824 22.4
      vertex 13.5 -21.712 22.4
    endloop
  endfacet
  facet normal -0 0 1
    outer loop
      vertex 11.5 -19.824 22.4
      vertex 13.5 -21.712 22.4
      vertex 13.5 -19.824 22.4
    endloop
  endfacet
  facet normal 0 0 1
    outer loop
      vertex 13.5 -21.712 22.4
      vertex 11.5 -19.824 22.4
      vertex 11.5 -21.712 22.4
    endloop
  endfacet
  facet normal -1 0 0
    outer loop
      vertex 15.5 -19.761 23.6
      vertex 15.5 -21.574 24.8
      vertex 15.5 -19.698 24.8
    endloop
  endfacet
  facet normal -1 0 -0
    outer loop
      vertex 15.5 -21.574 24.8
      vertex 15.5 -19.761 23.6
      vertex 15.5 -21.643 23.6
    endloop
  endfacet
  facet normal -0 0 1
    outer loop
      vertex 13.5 -19.761 23.6
      vertex 15.5 -21.643 23.6
      vertex 15.5 -19.761 23.6
    endloop
  endfacet
  facet normal 0 0 1
    outer loop
      vertex 15.5 -21.643 23.6
      vertex 13.5 -19.761 23.6
      vertex 13.5 -21.643 23.6
    endloop
  endfacet
  facet normal -1 0 0
    outer loop
      vertex 17.5 -19.698 24.8
      vertex 17.5 -21.505 26
      vertex 17.5 -19.635 26
    endloop
  endfacet
  facet normal -1 0 -0
    outer loop
      vertex 17.5 -21.505 26
      vertex 17.5 -19.698 24.8
      vertex 17.5 -21.574 24.8
    endloop
  endfacet
  facet normal -0 0 1
    outer loop
      vertex 15.5 -19.698 24.8
      vertex 17.5 -21.574 24.8
      vertex 17.5 -19.698 24.8
    endloop
  endfacet
  facet normal 0 0 1
    outer loop
      vertex 17.5 -21.574 24.8
      vertex 15.5 -19.698 24.8
      vertex 15.5 -21.574 24.8
    endloop
  endfacet
  facet normal 0 -0.997894 0.0648634
    outer loop
      vertex -25.61 -22.63 6
      vertex -22.8467 -22.8467 2.66667
      vertex -22.655 -22.63 6
    endloop
  endfacet
  facet normal -7.60681e-08 -0.997894 0.0648633
    outer loop
      vertex -26 -23.02 0
      vertex -22.8467 -22.8467 2.66667
      vertex -25.61 -22.63 6
    endloop
  endfacet
  facet normal 0 -0.997894 0.0648633
    outer loop
      vertex -23 -23.02 0
      vertex -22.8467 -22.8467 2.66667
      vertex -26 -23.02 0
    endloop
  endfacet
  facet normal 0 -0.997894 0.0648633
    outer loop
      vertex -22.8467 -22.8467 2.66667
      vertex -23 -23.02 0
      vertex -22.8267 -22.8467 2.66667
    endloop
  endfacet
  facet normal 0 0.997894 0.0648633
    outer loop
      vertex -22.8267 22.8467 2.66667
      vertex -23 23.02 0
      vertex -22.8467 22.8467 2.66667
    endloop
  endfacet
  facet normal 0 0.997894 0.0648634
    outer loop
      vertex -22.8467 22.8467 2.66667
      vertex -25.61 22.63 6
      vertex -22.655 22.63 6
    endloop
  endfacet
  facet normal -0 0.997894 0.0648633
    outer loop
      vertex -26 23.02 0
      vertex -22.8467 22.8467 2.66667
      vertex -23 23.02 0
    endloop
  endfacet
  facet normal -7.60681e-08 0.997894 0.0648633
    outer loop
      vertex -22.8467 22.8467 2.66667
      vertex -26 23.02 0
      vertex -25.61 22.63 6
    endloop
  endfacet
  facet normal -0.997894 0 0.064863
    outer loop
      vertex -26 23.02 0
      vertex -25.61 -22.63 6
      vertex -25.61 22.63 6
    endloop
  endfacet
  facet normal -0.997894 0 0.064863
    outer loop
      vertex -25.61 -22.63 6
      vertex -26 23.02 0
      vertex -26 -23.02 0
    endloop
  endfacet
  facet normal 0.997894 0 -0.0648633
    outer loop
      vertex -23 -23 0
      vertex -22.8267 -22.8467 2.66667
      vertex -23 -23.02 0
    endloop
  endfacet
  facet normal 0.997894 0 -0.0648633
    outer loop
      vertex -23 23.02 0
      vertex -22.8267 22.8467 2.66667
      vertex -23 23 0
    endloop
  endfacet
  facet normal 0.998874 0 0.0474465
    outer loop
      vertex 17.1 17.1 40
      vertex 17.2425 13 37
      vertex 17.2425 17.2425 37
    endloop
  endfacet
  facet normal 0.998874 0 0.0474471
    outer loop
      vertex 17.2425 13 37
      vertex 17.29 10 36
      vertex 17.29 13 36
    endloop
  endfacet
  facet normal 0.998874 3.88816e-07 0.0474459
    outer loop
      vertex 17.1 17.1 40
      vertex 17.29 10 36
      vertex 17.2425 13 37
    endloop
  endfacet
  facet normal 0.998874 0 0.0474452
    outer loop
      vertex 17.29 10 36
      vertex 17.3375 7 35
      vertex 17.3375 10 35
    endloop
  endfacet
  facet normal 0.998874 -1.16645e-06 0.0474487
    outer loop
      vertex 17.1 17.1 40
      vertex 17.3375 7 35
      vertex 17.29 10 36
    endloop
  endfacet
  facet normal 0.998874 0 0.0474471
    outer loop
      vertex 17.3375 7 35
      vertex 17.385 4 34
      vertex 17.385 7 34
    endloop
  endfacet
  facet normal 0.998874 -0 0.0474464
    outer loop
      vertex 17.1 -18.9 40
      vertex 17.3375 7 35
      vertex 17.1 17.1 40
    endloop
  endfacet
  facet normal 0.998874 0 0.0474471
    outer loop
      vertex 17.385 4 34
      vertex 17.4325 1 33
      vertex 17.4325 4 33
    endloop
  endfacet
  facet normal 0.998874 9.31638e-08 0.0474468
    outer loop
      vertex 17.3375 7 35
      vertex 17.1 -18.9 40
      vertex 17.385 4 34
    endloop
  endfacet
  facet normal 0.998874 0 0.0474471
    outer loop
      vertex 17.4325 1 33
      vertex 17.48 -2 32
      vertex 17.48 1 32
    endloop
  endfacet
  facet normal 0.998874 9.31638e-08 0.0474468
    outer loop
      vertex 17.385 4 34
      vertex 17.1 -18.9 40
      vertex 17.4325 1 33
    endloop
  endfacet
  facet normal 0.998874 0 0.0474452
    outer loop
      vertex 17.48 -2 32
      vertex 17.5275 -5 31
      vertex 17.5275 -2 31
    endloop
  endfacet
  facet normal 0.998874 9.31638e-08 0.0474468
    outer loop
      vertex 17.4325 1 33
      vertex 17.1 -18.9 40
      vertex 17.48 -2 32
    endloop
  endfacet
  facet normal 0.998874 0 0.0474471
    outer loop
      vertex 17.5275 -5 31
      vertex 17.575 -8 30
      vertex 17.575 -5 30
    endloop
  endfacet
  facet normal 0.998874 -2.79492e-07 0.047446
    outer loop
      vertex 17.48 -2 32
      vertex 17.1 -18.9 40
      vertex 17.5275 -5 31
    endloop
  endfacet
  facet normal 0.998874 0 0.0474471
    outer loop
      vertex 17.575 -8 30
      vertex 17.6225 -11 29
      vertex 17.6225 -8 29
    endloop
  endfacet
  facet normal 0.998874 1.39746e-07 0.0474467
    outer loop
      vertex 17.5275 -5 31
      vertex 17.1 -18.9 40
      vertex 17.575 -8 30
    endloop
  endfacet
  facet normal 0.998874 0 0.0474452
    outer loop
      vertex 17.6225 -11 29
      vertex 17.67 -14 28
      vertex 17.67 -11 28
    endloop
  endfacet
  facet normal 0.998874 1.39746e-07 0.0474467
    outer loop
      vertex 17.575 -8 30
      vertex 17.1 -18.9 40
      vertex 17.6225 -11 29
    endloop
  endfacet
  facet normal 0.998874 0 0.0474471
    outer loop
      vertex 17.67 -14 28
      vertex 17.7175 -17 27
      vertex 17.7175 -14 27
    endloop
  endfacet
  facet normal 0.998874 -3.72655e-07 0.0474463
    outer loop
      vertex 17.6225 -11 29
      vertex 17.1 -18.9 40
      vertex 17.67 -14 28
    endloop
  endfacet
  facet normal 0.998874 1.86328e-07 0.0474466
    outer loop
      vertex 17.67 -14 28
      vertex 17.1 -18.9 40
      vertex 17.7175 -17 27
    endloop
  endfacet
  facet normal 0.998874 2.10781e-07 0.0474466
    outer loop
      vertex 17.765 -19.635 26
      vertex 17.7175 -17 27
      vertex 17.1 -18.9 40
    endloop
  endfacet
  facet normal 0.998874 0 0.0474471
    outer loop
      vertex 17.7175 -17 27
      vertex 17.765 -19.635 26
      vertex 17.765 -17 26
    endloop
  endfacet
  facet normal 0 0 1
    outer loop
      vertex 20.7 20.7 40
      vertex 18.9 18.9 40
      vertex 20.7 -20.7 40
    endloop
  endfacet
  facet normal 0 0 1
    outer loop
      vertex 20.7 20.7 40
      vertex -18.9 18.9 40
      vertex 18.9 18.9 40
    endloop
  endfacet
  facet normal 0 0 1
    outer loop
      vertex -18.9 18.9 40
      vertex -20.7 20.7 40
      vertex -18.9 -17.1 40
    endloop
  endfacet
  facet normal -0 0 1
    outer loop
      vertex -20.7 20.7 40
      vertex -18.9 18.9 40
      vertex 20.7 20.7 40
    endloop
  endfacet
  facet normal 0 0 1
    outer loop
      vertex 20.7 -20.7 40
      vertex 18.9 18.9 40
      vertex 18.9 -20.7 40
    endloop
  endfacet
  facet normal 0 0 1
    outer loop
      vertex 6.3 13.5 40
      vertex 4.5 11.7 40
      vertex 6.3 8.1 40
    endloop
  endfacet
  facet normal 0 0 1
    outer loop
      vertex 6.3 13.5 40
      vertex -11.7 11.7 40
      vertex 4.5 11.7 40
    endloop
  endfacet
  facet normal 0 0 1
    outer loop
      vertex -11.7 11.7 40
      vertex -13.5 13.5 40
      vertex -11.7 -9.9 40
    endloop
  endfacet
  facet normal -0 0 1
    outer loop
      vertex -13.5 13.5 40
      vertex -11.7 11.7 40
      vertex 6.3 13.5 40
    endloop
  endfacet
  facet normal -0 0 1
    outer loop
      vertex 4.5 9.9 40
      vertex 6.3 8.1 40
      vertex 4.5 11.7 40
    endloop
  endfacet
  facet normal 0 0 1
    outer loop
      vertex 4.5 9.9 40
      vertex -8.1 8.1 40
      vertex 6.3 8.1 40
    endloop
  endfacet
  facet normal 0 0 1
    outer loop
      vertex -8.1 8.1 40
      vertex -9.9 9.9 40
      vertex -8.1 -6.3 40
    endloop
  endfacet
  facet normal -0 0 1
    outer loop
      vertex -9.9 9.9 40
      vertex -8.1 8.1 40
      vertex 4.5 9.9 40
    endloop
  endfacet
  facet normal 0 0 1
    outer loop
      vertex 9.9 17.1 40
      vertex 8.1 15.3 40
      vertex 9.9 4.5 40
    endloop
  endfacet
  facet normal 0 0 1
    outer loop
      vertex 9.9 17.1 40
      vertex -15.3 15.3 40
      vertex 8.1 15.3 40
    endloop
  endfacet
  facet normal 0 0 1
    outer loop
      vertex -15.3 15.3 40
      vertex -17.1 17.1 40
      vertex -15.3 -13.5 40
    endloop
  endfacet
  facet normal -0 0 1
    outer loop
      vertex -17.1 17.1 40
      vertex -15.3 15.3 40
      vertex 9.9 17.1 40
    endloop
  endfacet
  facet normal -0 0 1
    outer loop
      vertex 8.1 6.3 40
      vertex 9.9 4.5 40
      vertex 8.1 15.3 40
    endloop
  endfacet
  facet normal 0 0 1
    outer loop
      vertex 8.1 6.3 40
      vertex 6.3 4.5 40
      vertex 9.9 4.5 40
    endloop
  endfacet
  facet normal 0 0 1
    outer loop
      vertex 4.5 -6.3 40
      vertex 6.3 4.5 40
      vertex 4.5 4.5 40
    endloop
  endfacet
  facet normal 0 0 1
    outer loop
      vertex 8.1 6.3 40
      vertex 4.5 4.5 40
      vertex 6.3 4.5 40
    endloop
  endfacet
  facet normal -0 0 1
    outer loop
      vertex -6.3 6.3 40
      vertex 4.5 4.5 40
      vertex 8.1 6.3 40
    endloop
  endfacet
  facet normal 0 0 1
    outer loop
      vertex -4.5 4.5 40
      vertex -6.3 6.3 40
      vertex -4.5 -2.7 40
    endloop
  endfacet
  facet normal 0 0 1
    outer loop
      vertex 4.5 4.5 40
      vertex -6.3 6.3 40
      vertex -4.5 4.5 40
    endloop
  endfacet
  facet normal 0 0 1
    outer loop
      vertex 6.3 4.5 40
      vertex 4.5 -6.3 40
      vertex 6.3 -8.1 40
    endloop
  endfacet
  facet normal -0 0 1
    outer loop
      vertex -8.1 -6.3 40
      vertex 6.3 -8.1 40
      vertex 4.5 -6.3 40
    endloop
  endfacet
  facet normal 0 0 1
    outer loop
      vertex -8.1 -6.3 40
      vertex -9.9 -8.1 40
      vertex 6.3 -8.1 40
    endloop
  endfacet
  facet normal 0 0 1
    outer loop
      vertex -9.9 -8.1 40
      vertex -8.1 -6.3 40
      vertex -9.9 9.9 40
    endloop
  endfacet
  facet normal 0 0 1
    outer loop
      vertex 2.7 2.7 40
      vertex 0.9 0.9 40
      vertex 2.7 -4.5 40
    endloop
  endfacet
  facet normal 0 0 1
    outer loop
      vertex 2.7 2.7 40
      vertex -0.9 0.9 40
      vertex 0.9 0.9 40
    endloop
  endfacet
  facet normal -0 0 1
    outer loop
      vertex -2.7 2.7 40
      vertex -0.9 0.9 40
      vertex 2.7 2.7 40
    endloop
  endfacet
  facet normal 0 0 1
    outer loop
      vertex -2.7 -0.9 40
      vertex -0.9 0.9 40
      vertex -2.7 2.7 40
    endloop
  endfacet
  facet normal 0 0 1
    outer loop
      vertex -0.9 0.9 40
      vertex -2.7 -0.9 40
      vertex -0.9 -0.9 40
    endloop
  endfacet
  facet normal -0 0 1
    outer loop
      vertex 0.9 -2.7 40
      vertex 2.7 -4.5 40
      vertex 0.9 0.9 40
    endloop
  endfacet
  facet normal -0 0 1
    outer loop
      vertex -4.5 -2.7 40
      vertex 2.7 -4.5 40
      vertex 0.9 -2.7 40
    endloop
  endfacet
  facet normal 0 0 1
    outer loop
      vertex -4.5 -2.7 40
      vertex -6.3 -4.5 40
      vertex 2.7 -4.5 40
    endloop
  endfacet
  facet normal 0 0 1
    outer loop
      vertex -6.3 -4.5 40
      vertex -4.5 -2.7 40
      vertex -6.3 6.3 40
    endloop
  endfacet
  facet normal 0 0 1
    outer loop
      vertex 8.1 -9.9 40
      vertex 9.9 2.7 40
      vertex 8.1 2.7 40
    endloop
  endfacet
  facet normal 0 0 1
    outer loop
      vertex 9.9 2.7 40
      vertex 8.1 -9.9 40
      vertex 9.9 -11.7 40
    endloop
  endfacet
  facet normal -0 0 1
    outer loop
      vertex -11.7 -9.9 40
      vertex 9.9 -11.7 40
      vertex 8.1 -9.9 40
    endloop
  endfacet
  facet normal 0 0 1
    outer loop
      vertex -11.7 -9.9 40
      vertex -13.5 -11.7 40
      vertex 9.9 -11.7 40
    endloop
  endfacet
  facet normal 0 0 1
    outer loop
      vertex -13.5 -11.7 40
      vertex -11.7 -9.9 40
      vertex -13.5 13.5 40
    endloop
  endfacet
  facet normal 0 0 1
    outer loop
      vertex 17.1 17.1 40
      vertex 15.3 15.3 40
      vertex 17.1 -18.9 40
    endloop
  endfacet
  facet normal 0 0 1
    outer loop
      vertex 17.1 17.1 40
      vertex 13.5 15.3 40
      vertex 15.3 15.3 40
    endloop
  endfacet
  facet normal -0 0 1
    outer loop
      vertex 11.7 17.1 40
      vertex 13.5 15.3 40
      vertex 17.1 17.1 40
    endloop
  endfacet
  facet normal 0 0 1
    outer loop
      vertex 11.7 -13.5 40
      vertex 13.5 15.3 40
      vertex 11.7 17.1 40
    endloop
  endfacet
  facet normal 0 0 1
    outer loop
      vertex 13.5 15.3 40
      vertex 11.7 -13.5 40
      vertex 13.5 -15.3 40
    endloop
  endfacet
  facet normal -0 0 1
    outer loop
      vertex -15.3 -13.5 40
      vertex 13.5 -15.3 40
      vertex 11.7 -13.5 40
    endloop
  endfacet
  facet normal 0 0 1
    outer loop
      vertex -15.3 -13.5 40
      vertex -17.1 -15.3 40
      vertex 13.5 -15.3 40
    endloop
  endfacet
  facet normal 0 0 1
    outer loop
      vertex -17.1 -15.3 40
      vertex -15.3 -13.5 40
      vertex -17.1 17.1 40
    endloop
  endfacet
  facet normal -0 0 1
    outer loop
      vertex 15.3 -17.1 40
      vertex 17.1 -18.9 40
      vertex 15.3 15.3 40
    endloop
  endfacet
  facet normal -0 0 1
    outer loop
      vertex -18.9 -17.1 40
      vertex 17.1 -18.9 40
      vertex 15.3 -17.1 40
    endloop
  endfacet
  facet normal 0 0 1
    outer loop
      vertex -18.9 -17.1 40
      vertex -20.7 -18.9 40
      vertex 17.1 -18.9 40
    endloop
  endfacet
  facet normal 0 0 1
    outer loop
      vertex -20.7 -18.9 40
      vertex -18.9 -17.1 40
      vertex -20.7 20.7 40
    endloop
  endfacet
  facet normal -0 0.998874 0.0474465
    outer loop
      vertex 11.7975 17.2425 37
      vertex 17.1 17.1 40
      vertex 17.2425 17.2425 37
    endloop
  endfacet
  facet normal 0 0.998874 0.0474465
    outer loop
      vertex 17.1 17.1 40
      vertex 11.7975 17.2425 37
      vertex 11.7 17.1 40
    endloop
  endfacet
  facet normal -0.999472 0 -0.0324828
    outer loop
      vertex 11.7975 17.2425 37
      vertex 11.7 -13.5 40
      vertex 11.7 17.1 40
    endloop
  endfacet
  facet normal -0.999472 0 -0.0324828
    outer loop
      vertex 11.7 -13.5 40
      vertex 11.7975 17.2425 37
      vertex 11.7975 -13.6125 37
    endloop
  endfacet
  facet normal 0 0.999298 -0.0374737
    outer loop
      vertex 11.7975 -13.6125 37
      vertex -15.3 -13.5 40
      vertex 11.7 -13.5 40
    endloop
  endfacet
  facet normal 0 0.999298 -0.0374737
    outer loop
      vertex -15.3 -13.5 40
      vertex 11.7975 -13.6125 37
      vertex -15.4275 -13.6125 37
    endloop
  endfacet
  facet normal 0.999098 0 -0.0424618
    outer loop
      vertex -15.3 -13.5 40
      vertex -15.4275 15.4275 37
      vertex -15.3 15.3 40
    endloop
  endfacet
  facet normal 0.999098 0 -0.0424618
    outer loop
      vertex -15.4275 15.4275 37
      vertex -15.3 -13.5 40
      vertex -15.4275 -13.6125 37
    endloop
  endfacet
  facet normal -0 -0.999098 -0.0424618
    outer loop
      vertex 8.1675 15.4275 37
      vertex -15.3 15.3 40
      vertex -15.4275 15.4275 37
    endloop
  endfacet
  facet normal 0 -0.999098 -0.0424618
    outer loop
      vertex -15.3 15.3 40
      vertex 8.1675 15.4275 37
      vertex 8.1 15.3 40
    endloop
  endfacet
  facet normal -0.999747 0 -0.0224943
    outer loop
      vertex 8.1675 6.3525 37
      vertex 8.1 15.3 40
      vertex 8.1675 15.4275 37
    endloop
  endfacet
  facet normal -0.999747 -0 -0.0224943
    outer loop
      vertex 8.1 15.3 40
      vertex 8.1675 6.3525 37
      vertex 8.1 6.3 40
    endloop
  endfacet
  facet normal 0 0.999847 0.0174974
    outer loop
      vertex 8.1675 6.3525 37
      vertex -6.3 6.3 40
      vertex 8.1 6.3 40
    endloop
  endfacet
  facet normal 0 0.999847 0.0174974
    outer loop
      vertex -6.3 6.3 40
      vertex 8.1675 6.3525 37
      vertex -6.3525 6.3525 37
    endloop
  endfacet
  facet normal -0.999847 0 0.0174974
    outer loop
      vertex -6.3525 6.3525 37
      vertex -6.3 -4.5 40
      vertex -6.3 6.3 40
    endloop
  endfacet
  facet normal -0.999847 0 0.0174974
    outer loop
      vertex -6.3 -4.5 40
      vertex -6.3525 6.3525 37
      vertex -6.3525 -4.5375 37
    endloop
  endfacet
  facet normal 0 -0.999922 0.012499
    outer loop
      vertex -6.3525 -4.5375 37
      vertex 2.7 -4.5 40
      vertex -6.3 -4.5 40
    endloop
  endfacet
  facet normal 0 -0.999922 0.012499
    outer loop
      vertex 2.7 -4.5 40
      vertex -6.3525 -4.5375 37
      vertex 2.7225 -4.5375 37
    endloop
  endfacet
  facet normal 0.999972 -0 0.0074998
    outer loop
      vertex 2.7 -4.5 40
      vertex 2.7225 2.7225 37
      vertex 2.7 2.7 40
    endloop
  endfacet
  facet normal 0.999972 0 0.0074998
    outer loop
      vertex 2.7225 2.7225 37
      vertex 2.7 -4.5 40
      vertex 2.7225 -4.5375 37
    endloop
  endfacet
  facet normal 0 0.999972 0.0074998
    outer loop
      vertex 2.7225 2.7225 37
      vertex -2.7 2.7 40
      vertex 2.7 2.7 40
    endloop
  endfacet
  facet normal 0 0.999972 0.0074998
    outer loop
      vertex -2.7 2.7 40
      vertex 2.7225 2.7225 37
      vertex -2.7225 2.7225 37
    endloop
  endfacet
  facet normal -0.999972 0 0.0074998
    outer loop
      vertex -2.7225 2.7225 37
      vertex -2.7 -0.9 40
      vertex -2.7 2.7 40
    endloop
  endfacet
  facet normal -0.999972 0 0.0074998
    outer loop
      vertex -2.7 -0.9 40
      vertex -2.7225 2.7225 37
      vertex -2.7225 -0.9075 37
    endloop
  endfacet
  facet normal 0 -0.999997 0.00250001
    outer loop
      vertex -2.7225 -0.9075 37
      vertex -0.9 -0.9 40
      vertex -2.7 -0.9 40
    endloop
  endfacet
  facet normal 0 -0.999997 0.00250001
    outer loop
      vertex -0.9 -0.9 40
      vertex -2.7225 -0.9075 37
      vertex -0.9075 -0.9075 37
    endloop
  endfacet
  facet normal 0.999997 0 -0.00250001
    outer loop
      vertex -0.9 -0.9 40
      vertex -0.9075 0.9075 37
      vertex -0.9 0.9 40
    endloop
  endfacet
  facet normal 0.999997 0 -0.00250001
    outer loop
      vertex -0.9075 0.9075 37
      vertex -0.9 -0.9 40
      vertex -0.9075 -0.9075 37
    endloop
  endfacet
  facet normal 0 -0.999997 -0.00250001
    outer loop
      vertex -0.9075 0.9075 37
      vertex 0.9 0.9 40
      vertex -0.9 0.9 40
    endloop
  endfacet
  facet normal 0 -0.999997 -0.00250001
    outer loop
      vertex 0.9 0.9 40
      vertex -0.9075 0.9075 37
      vertex 0.9075 0.9075 37
    endloop
  endfacet
  facet normal -0.999997 0 -0.00250001
    outer loop
      vertex 0.9075 0.9075 37
      vertex 0.9 -2.7 40
      vertex 0.9 0.9 40
    endloop
  endfacet
  facet normal -0.999997 0 -0.00250001
    outer loop
      vertex 0.9 -2.7 40
      vertex 0.9075 0.9075 37
      vertex 0.9075 -2.7225 37
    endloop
  endfacet
  facet normal 0 0.999972 -0.0074998
    outer loop
      vertex 0.9075 -2.7225 37
      vertex -4.5 -2.7 40
      vertex 0.9 -2.7 40
    endloop
  endfacet
  facet normal 0 0.999972 -0.0074998
    outer loop
      vertex -4.5 -2.7 40
      vertex 0.9075 -2.7225 37
      vertex -4.5375 -2.7225 37
    endloop
  endfacet
  facet normal 0.999922 0 -0.012499
    outer loop
      vertex -4.5 -2.7 40
      vertex -4.5375 4.5375 37
      vertex -4.5 4.5 40
    endloop
  endfacet
  facet normal 0.999922 0 -0.012499
    outer loop
      vertex -4.5375 4.5375 37
      vertex -4.5 -2.7 40
      vertex -4.5375 -2.7225 37
    endloop
  endfacet
  facet normal 0 -0.999922 -0.012499
    outer loop
      vertex -4.5375 4.5375 37
      vertex 4.5 4.5 40
      vertex -4.5 4.5 40
    endloop
  endfacet
  facet normal 0 -0.999922 -0.012499
    outer loop
      vertex 4.5 4.5 40
      vertex -4.5375 4.5375 37
      vertex 4.5375 4.5375 37
    endloop
  endfacet
  facet normal -0.999922 0 -0.012499
    outer loop
      vertex 4.5375 4.5375 37
      vertex 4.5 -6.3 40
      vertex 4.5 4.5 40
    endloop
  endfacet
  facet normal -0.999922 0 -0.012499
    outer loop
      vertex 4.5 -6.3 40
      vertex 4.5375 4.5375 37
      vertex 4.5375 -6.3525 37
    endloop
  endfacet
  facet normal 0 0.999847 -0.0174974
    outer loop
      vertex 4.5375 -6.3525 37
      vertex -8.1 -6.3 40
      vertex 4.5 -6.3 40
    endloop
  endfacet
  facet normal 0 0.999847 -0.0174974
    outer loop
      vertex -8.1 -6.3 40
      vertex 4.5375 -6.3525 37
      vertex -8.1675 -6.3525 37
    endloop
  endfacet
  facet normal 0.999747 0 -0.0224943
    outer loop
      vertex -8.1 -6.3 40
      vertex -8.1675 8.1675 37
      vertex -8.1 8.1 40
    endloop
  endfacet
  facet normal 0.999747 0 -0.0224943
    outer loop
      vertex -8.1675 8.1675 37
      vertex -8.1 -6.3 40
      vertex -8.1675 -6.3525 37
    endloop
  endfacet
  facet normal 0 -0.999747 -0.0224943
    outer loop
      vertex -8.1675 8.1675 37
      vertex 6.3 8.1 40
      vertex -8.1 8.1 40
    endloop
  endfacet
  facet normal 0 -0.999747 -0.0224943
    outer loop
      vertex 6.3 8.1 40
      vertex -8.1675 8.1675 37
      vertex 6.3525 8.1675 37
    endloop
  endfacet
  facet normal 0.999847 0 0.0174974
    outer loop
      vertex 6.3 13.5 40
      vertex 6.3525 8.1675 37
      vertex 6.3525 13.6125 37
    endloop
  endfacet
  facet normal 0.999847 0 0.0174974
    outer loop
      vertex 6.3525 8.1675 37
      vertex 6.3 13.5 40
      vertex 6.3 8.1 40
    endloop
  endfacet
  facet normal 0 0.999298 0.0374737
    outer loop
      vertex 6.3525 13.6125 37
      vertex -13.5 13.5 40
      vertex 6.3 13.5 40
    endloop
  endfacet
  facet normal 0 0.999298 0.0374737
    outer loop
      vertex -13.5 13.5 40
      vertex 6.3525 13.6125 37
      vertex -13.6125 13.6125 37
    endloop
  endfacet
  facet normal -0.999298 0 0.0374737
    outer loop
      vertex -13.6125 13.6125 37
      vertex -13.5 -11.7 40
      vertex -13.5 13.5 40
    endloop
  endfacet
  facet normal -0.999298 0 0.0374737
    outer loop
      vertex -13.5 -11.7 40
      vertex -13.6125 13.6125 37
      vertex -13.6125 -11.7975 37
    endloop
  endfacet
  facet normal 0 -0.999472 0.0324828
    outer loop
      vertex -13.6125 -11.7975 37
      vertex 9.9 -11.7 40
      vertex -13.5 -11.7 40
    endloop
  endfacet
  facet normal 0 -0.999472 0.0324828
    outer loop
      vertex 9.9 -11.7 40
      vertex -13.6125 -11.7975 37
      vertex 9.9825 -11.7975 37
    endloop
  endfacet
  facet normal 0.999622 -0 0.0274898
    outer loop
      vertex 9.9 -11.7 40
      vertex 9.9825 2.7225 37
      vertex 9.9 2.7 40
    endloop
  endfacet
  facet normal 0.999622 0 0.0274898
    outer loop
      vertex 9.9825 2.7225 37
      vertex 9.9 -11.7 40
      vertex 9.9825 -11.7975 37
    endloop
  endfacet
  facet normal -0 0.999972 0.0074998
    outer loop
      vertex 8.1675 2.7225 37
      vertex 9.9 2.7 40
      vertex 9.9825 2.7225 37
    endloop
  endfacet
  facet normal 0 0.999972 0.0074998
    outer loop
      vertex 9.9 2.7 40
      vertex 8.1675 2.7225 37
      vertex 8.1 2.7 40
    endloop
  endfacet
  facet normal -0.999747 0 -0.0224943
    outer loop
      vertex 8.1675 2.7225 37
      vertex 8.1 -9.9 40
      vertex 8.1 2.7 40
    endloop
  endfacet
  facet normal -0.999747 0 -0.0224943
    outer loop
      vertex 8.1 -9.9 40
      vertex 8.1675 2.7225 37
      vertex 8.1675 -9.9825 37
    endloop
  endfacet
  facet normal 0 0.999622 -0.0274898
    outer loop
      vertex 8.1675 -9.9825 37
      vertex -11.7 -9.9 40
      vertex 8.1 -9.9 40
    endloop
  endfacet
  facet normal 0 0.999622 -0.0274898
    outer loop
      vertex -11.7 -9.9 40
      vertex 8.1675 -9.9825 37
      vertex -11.7975 -9.9825 37
    endloop
  endfacet
  facet normal 0.999472 0 -0.0324828
    outer loop
      vertex -11.7 -9.9 40
      vertex -11.7975 11.7975 37
      vertex -11.7 11.7 40
    endloop
  endfacet
  facet normal 0.999472 0 -0.0324828
    outer loop
      vertex -11.7975 11.7975 37
      vertex -11.7 -9.9 40
      vertex -11.7975 -9.9825 37
    endloop
  endfacet
  facet normal -0 -0.999472 -0.0324828
    outer loop
      vertex 4.5375 11.7975 37
      vertex -11.7 11.7 40
      vertex -11.7975 11.7975 37
    endloop
  endfacet
  facet normal 0 -0.999472 -0.0324828
    outer loop
      vertex -11.7 11.7 40
      vertex 4.5375 11.7975 37
      vertex 4.5 11.7 40
    endloop
  endfacet
  facet normal -0.999922 0 -0.012499
    outer loop
      vertex 4.5375 9.9825 37
      vertex 4.5 11.7 40
      vertex 4.5375 11.7975 37
    endloop
  endfacet
  facet normal -0.999922 -0 -0.012499
    outer loop
      vertex 4.5 11.7 40
      vertex 4.5375 9.9825 37
      vertex 4.5 9.9 40
    endloop
  endfacet
  facet normal 0 0.999622 0.0274898
    outer loop
      vertex 4.5375 9.9825 37
      vertex -9.9 9.9 40
      vertex 4.5 9.9 40
    endloop
  endfacet
  facet normal 0 0.999622 0.0274898
    outer loop
      vertex -9.9 9.9 40
      vertex 4.5375 9.9825 37
      vertex -9.9825 9.9825 37
    endloop
  endfacet
  facet normal -0.999622 0 0.0274898
    outer loop
      vertex -9.9825 9.9825 37
      vertex -9.9 -8.1 40
      vertex -9.9 9.9 40
    endloop
  endfacet
  facet normal -0.999622 0 0.0274898
    outer loop
      vertex -9.9 -8.1 40
      vertex -9.9825 9.9825 37
      vertex -9.9825 -8.1675 37
    endloop
  endfacet
  facet normal 0 -0.999747 0.0224943
    outer loop
      vertex -9.9825 -8.1675 37
      vertex 6.3 -8.1 40
      vertex -9.9 -8.1 40
    endloop
  endfacet
  facet normal 0 -0.999747 0.0224943
    outer loop
      vertex 6.3 -8.1 40
      vertex -9.9825 -8.1675 37
      vertex 6.3525 -8.1675 37
    endloop
  endfacet
  facet normal 0.999847 -0 0.0174974
    outer loop
      vertex 6.3 -8.1 40
      vertex 6.3525 4.5375 37
      vertex 6.3 4.5 40
    endloop
  endfacet
  facet normal 0.999847 0 0.0174974
    outer loop
      vertex 6.3525 4.5375 37
      vertex 6.3 -8.1 40
      vertex 6.3525 -8.1675 37
    endloop
  endfacet
  facet normal 0 -0.999922 -0.012499
    outer loop
      vertex 6.3525 4.5375 37
      vertex 9.9 4.5 40
      vertex 6.3 4.5 40
    endloop
  endfacet
  facet normal 0 -0.999922 -0.012499
    outer loop
      vertex 9.9 4.5 40
      vertex 6.3525 4.5375 37
      vertex 9.9825 4.5375 37
    endloop
  endfacet
  facet normal 0.999622 0 0.0274898
    outer loop
      vertex 9.9 17.1 40
      vertex 9.9825 4.5375 37
      vertex 9.9825 17.2425 37
    endloop
  endfacet
  facet normal 0.999622 0 0.0274898
    outer loop
      vertex 9.9825 4.5375 37
      vertex 9.9 17.1 40
      vertex 9.9 4.5 40
    endloop
  endfacet
  facet normal 0 0.998874 0.0474465
    outer loop
      vertex 9.9825 17.2425 37
      vertex -17.1 17.1 40
      vertex 9.9 17.1 40
    endloop
  endfacet
  facet normal 0 0.998874 0.0474465
    outer loop
      vertex -17.1 17.1 40
      vertex 9.9825 17.2425 37
      vertex -17.2425 17.2425 37
    endloop
  endfacet
  facet normal -0.998874 0 0.0474465
    outer loop
      vertex -17.2425 17.2425 37
      vertex -17.1 -15.3 40
      vertex -17.1 17.1 40
    endloop
  endfacet
  facet normal -0.998874 0 0.0474465
    outer loop
      vertex -17.1 -15.3 40
      vertex -17.2425 17.2425 37
      vertex -17.2425 -15.4275 37
    endloop
  endfacet
  facet normal 0 -0.999098 0.0424618
    outer loop
      vertex -17.2425 -15.4275 37
      vertex 13.5 -15.3 40
      vertex -17.1 -15.3 40
    endloop
  endfacet
  facet normal 0 -0.999098 0.0424618
    outer loop
      vertex 13.5 -15.3 40
      vertex -17.2425 -15.4275 37
      vertex 13.6125 -15.4275 37
    endloop
  endfacet
  facet normal 0.999298 -0 0.0374737
    outer loop
      vertex 13.5 -15.3 40
      vertex 13.6125 15.4275 37
      vertex 13.5 15.3 40
    endloop
  endfacet
  facet normal 0.999298 0 0.0374737
    outer loop
      vertex 13.6125 15.4275 37
      vertex 13.5 -15.3 40
      vertex 13.6125 -15.4275 37
    endloop
  endfacet
  facet normal 0 -0.999098 -0.0424618
    outer loop
      vertex 13.6125 15.4275 37
      vertex 15.3 15.3 40
      vertex 13.5 15.3 40
    endloop
  endfacet
  facet normal 0 -0.999098 -0.0424618
    outer loop
      vertex 15.3 15.3 40
      vertex 13.6125 15.4275 37
      vertex 15.4275 15.4275 37
    endloop
  endfacet
  facet normal -0.999098 0 -0.0424618
    outer loop
      vertex 15.4275 15.4275 37
      vertex 15.3 -17.1 40
      vertex 15.3 15.3 40
    endloop
  endfacet
  facet normal -0.999098 0 -0.0424618
    outer loop
      vertex 15.3 -17.1 40
      vertex 15.4275 15.4275 37
      vertex 15.4275 -17.2425 37
    endloop
  endfacet
  facet normal 0 0.998874 -0.0474465
    outer loop
      vertex 15.4275 -17.2425 37
      vertex -18.9 -17.1 40
      vertex 15.3 -17.1 40
    endloop
  endfacet
  facet normal 0 0.998874 -0.0474465
    outer loop
      vertex -18.9 -17.1 40
      vertex 15.4275 -17.2425 37
      vertex -19.0575 -17.2425 37
    endloop
  endfacet
endsolid OpenSCAD_Model
