solid OpenSCAD_Model
  facet normal -0 0 1
    outer loop
      vertex 0 5 15
      vertex 5 0 15
      vertex 5 5 15
    endloop
  endfacet
  facet normal 0 0 1
    outer loop
      vertex 5 0 15
      vertex 0 5 15
      vertex 0 0 15
    endloop
  endfacet
  facet normal 0 0 -1
    outer loop
      vertex 0 0 10
      vertex 5 5 10
      vertex 5 0 10
    endloop
  endfacet
  facet normal -0 0 -1
    outer loop
      vertex 5 5 10
      vertex 0 0 10
      vertex 0 5 10
    endloop
  endfacet
  facet normal 0 -1 0
    outer loop
      vertex 0 0 10
      vertex 5 0 15
      vertex 0 0 15
    endloop
  endfacet
  facet normal 0 -1 -0
    outer loop
      vertex 5 0 15
      vertex 0 0 10
      vertex 5 0 10
    endloop
  endfacet
  facet normal 1 -0 0
    outer loop
      vertex 5 0 15
      vertex 5 5 10
      vertex 5 5 15
    endloop
  endfacet
  facet normal 1 0 0
    outer loop
      vertex 5 5 10
      vertex 5 0 15
      vertex 5 0 10
    endloop
  endfacet
  facet normal 0 1 -0
    outer loop
      vertex 5 5 10
      vertex 0 5 15
      vertex 5 5 15
    endloop
  endfacet
  facet normal 0 1 0
    outer loop
      vertex 0 5 15
      vertex 5 5 10
      vertex 0 5 10
    endloop
  endfacet
  facet normal -1 0 0
    outer loop
      vertex 0 0 10
      vertex 0 5 15
      vertex 0 5 10
    endloop
  endfacet
  facet normal -1 -0 0
    outer loop
      vertex 0 5 15
      vertex 0 0 10
      vertex 0 0 15
    endloop
  endfacet
endsolid OpenSCAD_Model
