solid OpenSCAD_Model
  facet normal 0 0 -1
    outer loop
      vertex -5 -8.66025 0
      vertex -5 8.66025 0
      vertex 10 0 0
    endloop
  endfacet
  facet normal 0 0 1
    outer loop
      vertex 10 0 30
      vertex -5 8.66025 30
      vertex -5 -8.66025 30
    endloop
  endfacet
  facet normal 0.5 0.866025 -0
    outer loop
      vertex 10 0 0
      vertex -5 8.66025 30
      vertex 10 0 30
    endloop
  endfacet
  facet normal 0.5 0.866025 0
    outer loop
      vertex -5 8.66025 30
      vertex 10 0 0
      vertex -5 8.66025 0
    endloop
  endfacet
  facet normal -1 0 0
    outer loop
      vertex -5 -8.66025 0
      vertex -5 8.66025 30
      vertex -5 8.66025 0
    endloop
  endfacet
  facet normal -1 -0 0
    outer loop
      vertex -5 8.66025 30
      vertex -5 -8.66025 0
      vertex -5 -8.66025 30
    endloop
  endfacet
  facet normal 0.5 -0.866025 0
    outer loop
      vertex -5 -8.66025 0
      vertex 10 0 30
      vertex -5 -8.66025 30
    endloop
  endfacet
  facet normal 0.5 -0.866025 0
    outer loop
      vertex 10 0 30
      vertex -5 -8.66025 0
      vertex 10 0 0
    endloop
  endfacet
endsolid OpenSCAD_Model
