solid OpenSCAD_Model
  facet normal -1 0 0
    outer loop
      vertex -2.5 12.5 -2.5
      vertex -2.5 7.5 2.5
      vertex -2.5 12.5 2.5
    endloop
  endfacet
  facet normal -1 0 -0
    outer loop
      vertex -2.5 7.5 2.5
      vertex -2.5 12.5 -2.5
      vertex -2.5 7.5 -2.5
    endloop
  endfacet
  facet normal -0 0 1
    outer loop
      vertex -2.5 12.5 2.5
      vertex 2.5 7.5 2.5
      vertex 2.5 12.5 2.5
    endloop
  endfacet
  facet normal 0 0 1
    outer loop
      vertex 2.5 7.5 2.5
      vertex -2.5 12.5 2.5
      vertex -2.5 7.5 2.5
    endloop
  endfacet
  facet normal 1 0 0
    outer loop
      vertex 2.5 12.5 2.5
      vertex 2.5 7.5 2.5
      vertex 2.5 12.5 -2.5
    endloop
  endfacet
  facet normal 1 0 0
    outer loop
      vertex 2.5 12.5 -2.5
      vertex 2.5 7.5 2.5
      vertex 2.5 7.5 -2.5
    endloop
  endfacet
  facet normal 0 1 -0
    outer loop
      vertex 2.5 12.5 -2.5
      vertex -2.5 12.5 2.5
      vertex 2.5 12.5 2.5
    endloop
  endfacet
  facet normal 0 1 0
    outer loop
      vertex -2.5 12.5 2.5
      vertex 2.5 12.5 -2.5
      vertex -2.5 12.5 -2.5
    endloop
  endfacet
  facet normal 0 0 -1
    outer loop
      vertex -2.5 7.5 -2.5
      vertex 2.5 12.5 -2.5
      vertex 2.5 7.5 -2.5
    endloop
  endfacet
  facet normal -0 0 -1
    outer loop
      vertex 2.5 12.5 -2.5
      vertex -2.5 7.5 -2.5
      vertex -2.5 12.5 -2.5
    endloop
  endfacet
  facet normal -1 0 0
    outer loop
      vertex -2.5 4.69527 6.36038
      vertex -2.5 1.48507 12.6607
      vertex -2.5 6.24035 11.1157
    endloop
  endfacet
  facet normal -1 0 -0
    outer loop
      vertex -2.5 1.48507 12.6607
      vertex -2.5 4.69527 6.36038
      vertex -2.5 -0.0600138 7.90547
    endloop
  endfacet
  facet normal 0 -0.951057 0.309017
    outer loop
      vertex -2.5 -0.0600138 7.90547
      vertex 2.5 1.48507 12.6607
      vertex -2.5 1.48507 12.6607
    endloop
  endfacet
  facet normal 0 -0.951057 0.309017
    outer loop
      vertex 2.5 1.48507 12.6607
      vertex -2.5 -0.0600138 7.90547
      vertex 2.5 -0.0600138 7.90547
    endloop
  endfacet
  facet normal 1 0 0
    outer loop
      vertex 2.5 1.48507 12.6607
      vertex 2.5 4.69527 6.36038
      vertex 2.5 6.24035 11.1157
    endloop
  endfacet
  facet normal 1 0 0
    outer loop
      vertex 2.5 4.69527 6.36038
      vertex 2.5 1.48507 12.6607
      vertex 2.5 -0.0600138 7.90547
    endloop
  endfacet
  facet normal -0 0.309017 0.951057
    outer loop
      vertex -2.5 6.24035 11.1157
      vertex 2.5 1.48507 12.6607
      vertex 2.5 6.24035 11.1157
    endloop
  endfacet
  facet normal 0 0.309017 0.951057
    outer loop
      vertex 2.5 1.48507 12.6607
      vertex -2.5 6.24035 11.1157
      vertex -2.5 1.48507 12.6607
    endloop
  endfacet
  facet normal 0 0.951057 -0.309017
    outer loop
      vertex 2.5 4.69527 6.36038
      vertex -2.5 6.24035 11.1157
      vertex 2.5 6.24035 11.1157
    endloop
  endfacet
  facet normal 0 0.951057 -0.309017
    outer loop
      vertex -2.5 6.24035 11.1157
      vertex 2.5 4.69527 6.36038
      vertex -2.5 4.69527 6.36038
    endloop
  endfacet
  facet normal 0 -0.309017 -0.951057
    outer loop
      vertex -2.5 -0.0600138 7.90547
      vertex 2.5 4.69527 6.36038
      vertex 2.5 -0.0600138 7.90547
    endloop
  endfacet
  facet normal -0 -0.309017 -0.951057
    outer loop
      vertex 2.5 4.69527 6.36038
      vertex -2.5 -0.0600138 7.90547
      vertex -2.5 4.69527 6.36038
    endloop
  endfacet
  facet normal 1 0 0
    outer loop
      vertex 2.5 -8.64325 9.36986
      vertex 2.5 -7.53709 2.38585
      vertex 2.5 -4.59816 6.43093
    endloop
  endfacet
  facet normal 1 0 0
    outer loop
      vertex 2.5 -7.53709 2.38585
      vertex 2.5 -8.64325 9.36986
      vertex 2.5 -11.5822 5.32477
    endloop
  endfacet
  facet normal 0 -0.587785 -0.809017
    outer loop
      vertex -2.5 -11.5822 5.32477
      vertex 2.5 -7.53709 2.38585
      vertex 2.5 -11.5822 5.32477
    endloop
  endfacet
  facet normal -0 -0.587785 -0.809017
    outer loop
      vertex 2.5 -7.53709 2.38585
      vertex -2.5 -11.5822 5.32477
      vertex -2.5 -7.53709 2.38585
    endloop
  endfacet
  facet normal 0 -0.809017 0.587785
    outer loop
      vertex -2.5 -11.5822 5.32477
      vertex 2.5 -8.64325 9.36986
      vertex -2.5 -8.64325 9.36986
    endloop
  endfacet
  facet normal 0 -0.809017 0.587785
    outer loop
      vertex 2.5 -8.64325 9.36986
      vertex -2.5 -11.5822 5.32477
      vertex 2.5 -11.5822 5.32477
    endloop
  endfacet
  facet normal -1 0 0
    outer loop
      vertex -2.5 -7.53709 2.38585
      vertex -2.5 -8.64325 9.36986
      vertex -2.5 -4.59816 6.43093
    endloop
  endfacet
  facet normal -1 0 -0
    outer loop
      vertex -2.5 -8.64325 9.36986
      vertex -2.5 -7.53709 2.38585
      vertex -2.5 -11.5822 5.32477
    endloop
  endfacet
  facet normal -0 0.587785 0.809017
    outer loop
      vertex -2.5 -4.59816 6.43093
      vertex 2.5 -8.64325 9.36986
      vertex 2.5 -4.59816 6.43093
    endloop
  endfacet
  facet normal 0 0.587785 0.809017
    outer loop
      vertex 2.5 -8.64325 9.36986
      vertex -2.5 -4.59816 6.43093
      vertex -2.5 -8.64325 9.36986
    endloop
  endfacet
  facet normal 0 0.809017 -0.587785
    outer loop
      vertex 2.5 -7.53709 2.38585
      vertex -2.5 -4.59816 6.43093
      vertex 2.5 -4.59816 6.43093
    endloop
  endfacet
  facet normal 0 0.809017 -0.587785
    outer loop
      vertex -2.5 -4.59816 6.43093
      vertex 2.5 -7.53709 2.38585
      vertex -2.5 -7.53709 2.38585
    endloop
  endfacet
  facet normal 1 0 0
    outer loop
      vertex 2.5 -7.53709 -2.38585
      vertex 2.5 -8.64325 -9.36986
      vertex 2.5 -4.59816 -6.43093
    endloop
  endfacet
  facet normal 1 0 -0
    outer loop
      vertex 2.5 -8.64325 -9.36986
      vertex 2.5 -7.53709 -2.38585
      vertex 2.5 -11.5822 -5.32477
    endloop
  endfacet
  facet normal 0 0.587785 -0.809017
    outer loop
      vertex -2.5 -8.64325 -9.36986
      vertex 2.5 -4.59816 -6.43093
      vertex 2.5 -8.64325 -9.36986
    endloop
  endfacet
  facet normal 0 0.587785 -0.809017
    outer loop
      vertex 2.5 -4.59816 -6.43093
      vertex -2.5 -8.64325 -9.36986
      vertex -2.5 -4.59816 -6.43093
    endloop
  endfacet
  facet normal 0 -0.809017 -0.587785
    outer loop
      vertex -2.5 -8.64325 -9.36986
      vertex 2.5 -11.5822 -5.32477
      vertex -2.5 -11.5822 -5.32477
    endloop
  endfacet
  facet normal 0 -0.809017 -0.587785
    outer loop
      vertex 2.5 -11.5822 -5.32477
      vertex -2.5 -8.64325 -9.36986
      vertex 2.5 -8.64325 -9.36986
    endloop
  endfacet
  facet normal -1 0 0
    outer loop
      vertex -2.5 -8.64325 -9.36986
      vertex -2.5 -7.53709 -2.38585
      vertex -2.5 -4.59816 -6.43093
    endloop
  endfacet
  facet normal -1 0 0
    outer loop
      vertex -2.5 -7.53709 -2.38585
      vertex -2.5 -8.64325 -9.36986
      vertex -2.5 -11.5822 -5.32477
    endloop
  endfacet
  facet normal 0 -0.587785 0.809017
    outer loop
      vertex -2.5 -7.53709 -2.38585
      vertex 2.5 -11.5822 -5.32477
      vertex 2.5 -7.53709 -2.38585
    endloop
  endfacet
  facet normal 0 -0.587785 0.809017
    outer loop
      vertex 2.5 -11.5822 -5.32477
      vertex -2.5 -7.53709 -2.38585
      vertex -2.5 -11.5822 -5.32477
    endloop
  endfacet
  facet normal 0 0.809017 0.587785
    outer loop
      vertex 2.5 -4.59816 -6.43093
      vertex -2.5 -7.53709 -2.38585
      vertex 2.5 -7.53709 -2.38585
    endloop
  endfacet
  facet normal 0 0.809017 0.587785
    outer loop
      vertex -2.5 -7.53709 -2.38585
      vertex 2.5 -4.59816 -6.43093
      vertex -2.5 -4.59816 -6.43093
    endloop
  endfacet
  facet normal -1 0 0
    outer loop
      vertex -2.5 1.48507 -12.6607
      vertex -2.5 4.69527 -6.36038
      vertex -2.5 6.24035 -11.1157
    endloop
  endfacet
  facet normal -1 0 0
    outer loop
      vertex -2.5 4.69527 -6.36038
      vertex -2.5 1.48507 -12.6607
      vertex -2.5 -0.0600138 -7.90547
    endloop
  endfacet
  facet normal 0 0.951057 0.309017
    outer loop
      vertex 2.5 6.24035 -11.1157
      vertex -2.5 4.69527 -6.36038
      vertex 2.5 4.69527 -6.36038
    endloop
  endfacet
  facet normal 0 0.951057 0.309017
    outer loop
      vertex -2.5 4.69527 -6.36038
      vertex 2.5 6.24035 -11.1157
      vertex -2.5 6.24035 -11.1157
    endloop
  endfacet
  facet normal 1 0 0
    outer loop
      vertex 2.5 4.69527 -6.36038
      vertex 2.5 1.48507 -12.6607
      vertex 2.5 6.24035 -11.1157
    endloop
  endfacet
  facet normal 1 0 -0
    outer loop
      vertex 2.5 1.48507 -12.6607
      vertex 2.5 4.69527 -6.36038
      vertex 2.5 -0.0600138 -7.90547
    endloop
  endfacet
  facet normal 0 0.309017 -0.951057
    outer loop
      vertex -2.5 1.48507 -12.6607
      vertex 2.5 6.24035 -11.1157
      vertex 2.5 1.48507 -12.6607
    endloop
  endfacet
  facet normal 0 0.309017 -0.951057
    outer loop
      vertex 2.5 6.24035 -11.1157
      vertex -2.5 1.48507 -12.6607
      vertex -2.5 6.24035 -11.1157
    endloop
  endfacet
  facet normal 0 -0.951057 -0.309017
    outer loop
      vertex -2.5 1.48507 -12.6607
      vertex 2.5 -0.0600138 -7.90547
      vertex -2.5 -0.0600138 -7.90547
    endloop
  endfacet
  facet normal 0 -0.951057 -0.309017
    outer loop
      vertex 2.5 -0.0600138 -7.90547
      vertex -2.5 1.48507 -12.6607
      vertex 2.5 1.48507 -12.6607
    endloop
  endfacet
  facet normal 0 -0.309017 0.951057
    outer loop
      vertex -2.5 4.69527 -6.36038
      vertex 2.5 -0.0600138 -7.90547
      vertex 2.5 4.69527 -6.36038
    endloop
  endfacet
  facet normal 0 -0.309017 0.951057
    outer loop
      vertex 2.5 -0.0600138 -7.90547
      vertex -2.5 4.69527 -6.36038
      vertex -2.5 -0.0600138 -7.90547
    endloop
  endfacet
  facet normal 0 -1 1.90735e-007
    outer loop
      vertex -2.5 7.5 -2.5
      vertex 2.5 7.5 2.5
      vertex -2.5 7.5 2.5
    endloop
  endfacet
  facet normal 0 -1 1.90735e-007
    outer loop
      vertex 2.5 7.5 2.5
      vertex -2.5 7.5 -2.5
      vertex 2.5 7.5 -2.5
    endloop
  endfacet
endsolid OpenSCAD_Model
